STARTFONT 2.1
COMMENT "32-point bold 3270 font"
COMMENT "Uses nonstandard ordering:"
COMMENT " Page 0: EBCDIC US-International set, CG order"
COMMENT " Page 1: EBCDIC APL/APL2 set, CG order (incomplete)"
COMMENT " Page 2: (first 16 characters only) DEC line-drawing characters from"
COMMENT "  fixed-width X fonts"
COMMENT ""
COMMENT "Copyright (c) 1994-2009, Paul Mattes."
COMMENT "All rights reserved."
COMMENT ""
COMMENT "Redistribution and use in source and binary forms, with or"
COMMENT "without modification, are permitted provided that the following"
COMMENT "conditions are met:"
COMMENT "    * Redistributions of source code must retain the above"
COMMENT "      copyright notice, this list of conditions and the following"
COMMENT "      disclaimer."
COMMENT "    * Redistributions in binary form must reproduce the above"
COMMENT "      copyright notice, this list of conditions and the following"
COMMENT "      disclaimer in the documentation and/or other materials"
COMMENT "      provided with the distribution."
COMMENT "    * Neither the name of Paul Mattes nor his contributors may"
COMMENT "      be used to endorse or promote products derived from this"
COMMENT "      software without specific prior written permission."
COMMENT ""
COMMENT "THIS SOFTWARE IS PROVIDED BY PAUL MATTES 'AS IS' AND ANY"
COMMENT "EXPRESS OR IMPLIED WARRANTIES, INCLUDING, BUT NOT LIMITED TO,"
COMMENT "THE IMPLIED WARRANTIES OF MERCHANTABILITY AND FITNESS FOR"
COMMENT "A PARTICULAR PURPOSE ARE DISCLAIMED. IN NO EVENT SHALL PAUL"
COMMENT "MATTES BE LIABLE FOR ANY DIRECT, INDIRECT, INCIDENTAL, SPECIAL,"
COMMENT "EXEMPLARY, OR CONSEQUENTIAL DAMAGES (INCLUDING, BUT NOT LIMITED"
COMMENT "TO, PROCUREMENT OF SUBSTITUTE GOODS OR SERVICES; LOSS OF USE,"
COMMENT "DATA, OR PROFITS; OR BUSINESS INTERRUPTION) HOWEVER CAUSED"
COMMENT "AND ON ANY THEORY OF LIABILITY, WHETHER IN CONTRACT, STRICT"
COMMENT "LIABILITY, OR TORT (INCLUDING NEGLIGENCE OR OTHERWISE) ARISING"

STARTCHAR null
ENCODING 0
SWIDTH 563 0
DWIDTH 18 0
BBX 18 32 0 -8
BITMAP
000000
000000
000000
000000
000000
000000
000000
000000
000000
000000
000000
000000
000000
000000
000000
000000
000000
000000
000000
000000
000000
000000
000000
000000
000000
000000
000000
000000
000000
000000
000000
000000
ENDCHAR
STARTCHAR nobreakspace
ENCODING 1
SWIDTH 563 0
DWIDTH 18 0
BBX 18 32 0 -8
BITMAP
000000
000000
000000
000000
000000
000000
000000
000000
000000
000000
000000
000000
000000
000000
000000
000000
000000
000000
000000
000000
000000
000000
000000
000000
000000
000000
000000
000000
000000
000000
000000
000000
ENDCHAR
STARTCHAR euro
ENCODING 2
SWIDTH 563 0
DWIDTH 18 0
BBX 18 32 0 -8
BITMAP
000000
000000
000000
000000
01FC00
03FE00
078F00
0F0700
1E0000
1C0000
1C0000
7FFF00
7FFE00
1C0000
1C0000
7FFE00
7FFC00
1C0000
1C0000
1E0000
0F0700
078F00
03FE00
01FC00
000000
000000
000000
000000
000000
000000
000000
000000
ENDCHAR
STARTCHAR cr
ENCODING 3
SWIDTH 563 0
DWIDTH 18 0
BBX 18 32 0 -8
BITMAP
000000
000000
000000
000000
000000
000000
000000
000000
000000
000000
000000
000000
000000
000000
000000
000000
000000
000000
000000
000000
000000
000000
000000
000000
000000
000000
000000
000000
000000
000000
000000
000000
ENDCHAR
STARTCHAR nl
ENCODING 4
SWIDTH 563 0
DWIDTH 18 0
BBX 18 32 0 -8
BITMAP
000000
000000
000000
000000
000000
000000
000000
000000
000000
000000
000000
000000
000000
000000
000000
000000
000000
000000
000000
000000
000000
000000
000000
000000
000000
000000
000000
000000
000000
000000
000000
000000
ENDCHAR
STARTCHAR em
ENCODING 5
SWIDTH 563 0
DWIDTH 18 0
BBX 18 32 0 -8
BITMAP
000000
000000
000000
000000
000000
000000
000000
000000
000000
000000
000000
000000
000000
000000
000000
000000
000000
000000
000000
000000
000000
000000
000000
000000
000000
000000
000000
000000
000000
000000
000000
000000
ENDCHAR
STARTCHAR eightones
ENCODING 6
SWIDTH 563 0
DWIDTH 18 0
BBX 18 32 0 -8
BITMAP
000000
000000
000000
000000
000000
000000
000000
000000
000000
000000
01e000
03f000
07f800
0ffc00
0ffc00
0ffc00
0ffc00
07f800
03f000
01e000
000000
000000
000000
000000
000000
000000
000000
000000
000000
000000
000000
000000
ENDCHAR
STARTCHAR hyphen
ENCODING 7
SWIDTH 563 0
DWIDTH 18 0
BBX 18 32 0 -8
BITMAP
000000
000000
000000
000000
000000
000000
000000
000000
000000
000000
000000
000000
000000
000000
0ffe00
0ffe00
000000
000000
000000
000000
000000
000000
000000
000000
000000
000000
000000
000000
000000
000000
000000
000000
ENDCHAR
STARTCHAR greater
ENCODING 8
SWIDTH 563 0
DWIDTH 18 0
BBX 18 32 0 -8
BITMAP
000000
000000
000000
000000
000000
000000
0e0000
0f0000
078000
03c000
01e000
00f000
007800
003c00
001e00
001e00
003c00
007800
00f000
01e000
03c000
078000
0f0000
0e0000
000000
000000
000000
000000
000000
000000
000000
000000
ENDCHAR
STARTCHAR less
ENCODING 9
SWIDTH 563 0
DWIDTH 18 0
BBX 18 32 0 -8
BITMAP
000000
000000
000000
000000
000000
000000
000e00
001e00
003c00
007800
00f000
01e000
03c000
078000
0f0000
0f0000
078000
03c000
01e000
00f000
007800
003c00
001e00
000e00
000000
000000
000000
000000
000000
000000
000000
000000
ENDCHAR
STARTCHAR bracketleft
ENCODING 10
SWIDTH 563 0
DWIDTH 18 0
BBX 18 32 0 -8
BITMAP
000000
000000
000000
000000
03f800
03f800
038000
038000
038000
038000
038000
038000
038000
038000
038000
038000
038000
038000
038000
038000
038000
038000
038000
038000
03f800
03f800
000000
000000
000000
000000
000000
000000
ENDCHAR
STARTCHAR bracketright
ENCODING 11
SWIDTH 563 0
DWIDTH 18 0
BBX 18 32 0 -8
BITMAP
000000
000000
000000
000000
03f800
03f800
003800
003800
003800
003800
003800
003800
003800
003800
003800
003800
003800
003800
003800
003800
003800
003800
003800
003800
03f800
03f800
000000
000000
000000
000000
000000
000000
ENDCHAR
STARTCHAR parenright
ENCODING 12
SWIDTH 563 0
DWIDTH 18 0
BBX 18 32 0 -8
BITMAP
000000
000000
000000
000000
000000
000000
038000
03c000
01e000
00f000
007800
003800
003800
003800
003800
003800
003800
003800
003800
007800
00f000
01e000
03c000
038000
000000
000000
000000
000000
000000
000000
000000
000000
ENDCHAR
STARTCHAR parenleft
ENCODING 13
SWIDTH 563 0
DWIDTH 18 0
BBX 18 32 0 -8
BITMAP
000000
000000
000000
000000
000000
000000
003800
007800
00f000
01e000
03c000
038000
038000
038000
038000
038000
038000
038000
038000
03c000
01e000
00f000
007800
003800
000000
000000
000000
000000
000000
000000
000000
000000
ENDCHAR
STARTCHAR braceright
ENCODING 14
SWIDTH 563 0
DWIDTH 18 0
BBX 18 32 0 -8
BITMAP
000000
000000
000000
000000
0f8000
0fc000
01e000
00e000
00e000
00e000
00e000
00e000
00e000
00f000
007800
007800
00f000
00e000
00e000
00e000
00e000
00e000
00e000
01e000
0fc000
0f8000
000000
000000
000000
000000
000000
000000
ENDCHAR
STARTCHAR braceleft
ENCODING 15
SWIDTH 563 0
DWIDTH 18 0
BBX 18 32 0 -8
BITMAP
000000
000000
000000
000000
00f800
01f800
03c000
038000
038000
038000
038000
038000
038000
078000
0f0000
0f0000
078000
038000
038000
038000
038000
038000
038000
03c000
01f800
00f800
000000
000000
000000
000000
000000
000000
ENDCHAR
STARTCHAR space
ENCODING 16
SWIDTH 563 0
DWIDTH 18 0
BBX 18 32 0 -8
BITMAP
000000
000000
000000
000000
000000
000000
000000
000000
000000
000000
000000
000000
000000
000000
000000
000000
000000
000000
000000
000000
000000
000000
000000
000000
000000
000000
000000
000000
000000
000000
000000
000000
ENDCHAR
STARTCHAR equal
ENCODING 17
SWIDTH 563 0
DWIDTH 18 0
BBX 18 32 0 -8
BITMAP
000000
000000
000000
000000
000000
000000
000000
000000
000000
000000
3fff80
3fff80
000000
000000
000000
000000
3fff80
3fff80
000000
000000
000000
000000
000000
000000
000000
000000
000000
000000
000000
000000
000000
000000
ENDCHAR
STARTCHAR apostrophe
ENCODING 18
SWIDTH 563 0
DWIDTH 18 0
BBX 18 32 0 -8
BITMAP
000000
000000
000000
000000
00e000
00e000
00e000
00e000
00e000
00e000
000000
000000
000000
000000
000000
000000
000000
000000
000000
000000
000000
000000
000000
000000
000000
000000
000000
000000
000000
000000
000000
000000
ENDCHAR
STARTCHAR quotedbl
ENCODING 19
SWIDTH 563 0
DWIDTH 18 0
BBX 18 32 0 -8
BITMAP
000000
000000
000000
000000
0e3800
0e3800
0e3800
0e3800
0e3800
0e3800
000000
000000
000000
000000
000000
000000
000000
000000
000000
000000
000000
000000
000000
000000
000000
000000
000000
000000
000000
000000
000000
000000
ENDCHAR
STARTCHAR slash
ENCODING 20
SWIDTH 563 0
DWIDTH 18 0
BBX 18 32 0 -8
BITMAP
000000
000000
000000
000000
000000
000000
000000
000000
000380
000780
000f00
001e00
003c00
007800
00f000
01e000
03c000
078000
0f0000
1e0000
3c0000
380000
000000
000000
000000
000000
000000
000000
000000
000000
000000
000000
ENDCHAR
STARTCHAR backslash
ENCODING 21
SWIDTH 563 0
DWIDTH 18 0
BBX 18 32 0 -8
BITMAP
000000
000000
000000
000000
000000
000000
000000
000000
380000
3c0000
1e0000
0f0000
078000
03c000
01e000
00f000
007800
003c00
001e00
000f00
000780
000380
000000
000000
000000
000000
000000
000000
000000
000000
000000
000000
ENDCHAR
STARTCHAR bar
ENCODING 22
SWIDTH 563 0
DWIDTH 18 0
BBX 18 32 0 -8
BITMAP
000000
000000
00e000
00e000
00e000
00e000
00e000
00e000
00e000
00e000
00e000
00e000
00e000
00e000
00e000
00e000
00e000
00e000
00e000
00e000
00e000
00e000
00e000
00e000
00e000
00e000
00e000
00e000
000000
000000
000000
000000
ENDCHAR
STARTCHAR brokenbar
ENCODING 23
SWIDTH 563 0
DWIDTH 18 0
BBX 18 32 0 -8
BITMAP
000000
000000
000000
000000
00e000
00e000
00e000
00e000
00e000
00e000
00e000
00e000
00e000
00e000
000000
000000
000000
000000
00e000
00e000
00e000
00e000
00e000
00e000
00e000
00e000
00e000
00e000
000000
000000
000000
000000
ENDCHAR
STARTCHAR question
ENCODING 24
SWIDTH 563 0
DWIDTH 18 0
BBX 18 32 0 -8
BITMAP
000000
000000
000000
000000
03fe00
07ff00
0f0780
0e0380
0e0380
0e0780
000f00
001e00
003c00
007800
00f000
00e000
00e000
00e000
000000
000000
000000
000000
00e000
00e000
000000
000000
000000
000000
000000
000000
000000
000000
ENDCHAR
STARTCHAR exclam
ENCODING 25
SWIDTH 563 0
DWIDTH 18 0
BBX 18 32 0 -8
BITMAP
000000
000000
000000
000000
00e000
00e000
00e000
00e000
00e000
00e000
00e000
00e000
00e000
00e000
00e000
00e000
00e000
00e000
000000
000000
000000
000000
00e000
00e000
000000
000000
000000
000000
000000
000000
000000
000000
ENDCHAR
STARTCHAR dollar
ENCODING 26
SWIDTH 563 0
DWIDTH 18 0
BBX 18 32 0 -8
BITMAP
000000
000000
000000
000000
00e000
00e000
00e000
00e000
0fff80
1fff80
3ce000
38e000
38e000
3ce000
1ffe00
0fff00
00e780
00e380
00e380
00e780
3fff00
3ffe00
00e000
00e000
00e000
00e000
000000
000000
000000
000000
000000
000000
ENDCHAR
STARTCHAR cent
ENCODING 27
SWIDTH 563 0
DWIDTH 18 0
BBX 18 32 0 -8
BITMAP
000000
000000
000000
000000
00e000
00e000
00e000
00e000
0ffe00
1ffe00
3ce000
38e000
38e000
38e000
38e000
3ce000
1ffe00
0ffe00
00e000
00e000
00e000
00e000
000000
000000
000000
000000
000000
000000
000000
000000
000000
000000
ENDCHAR
STARTCHAR sterling
ENCODING 28
SWIDTH 563 0
DWIDTH 18 0
BBX 18 32 0 -8
BITMAP
000000
000000
000000
000000
00f800
01fc00
03de00
038e00
038000
038000
038000
038000
3ff800
3ff800
038000
038000
038000
038000
038000
038000
3f8380
3fc780
3fff00
3efe00
000000
000000
000000
000000
000000
000000
000000
000000
ENDCHAR
STARTCHAR yen
ENCODING 29
SWIDTH 563 0
DWIDTH 18 0
BBX 18 32 0 -8
BITMAP
000000
000000
000000
000000
380380
3c0780
1e0f00
0f1e00
07bc00
03f800
01f000
00e000
3fff80
3fff80
00e000
00e000
00e000
00e000
3fff80
3fff80
00e000
00e000
00e000
00e000
000000
000000
000000
000000
000000
000000
000000
000000
ENDCHAR
STARTCHAR paragraph
ENCODING 30
SWIDTH 563 0
DWIDTH 18 0
BBX 18 32 0 -8
BITMAP
000000
000000
000000
000000
3fe000
3ff000
387800
383800
383800
383800
383800
387800
3ff000
3fe000
380000
380000
383800
383800
38fe00
38fe00
383800
383800
383800
383800
003800
003800
000000
000000
000000
000000
000000
000000
ENDCHAR
STARTCHAR currency
ENCODING 31
SWIDTH 563 0
DWIDTH 18 0
BBX 18 32 0 -8
BITMAP
000000
000000
000000
000000
000000
000000
380380
3c0780
1e0f00
0f1e00
07fc00
03f800
071c00
0e0e00
0e0e00
0e0e00
0e0e00
071c00
03f800
07fc00
0f1e00
1e0f00
3c0780
380380
000000
000000
000000
000000
000000
000000
000000
000000
ENDCHAR
STARTCHAR 0
ENCODING 32
SWIDTH 563 0
DWIDTH 18 0
BBX 18 32 0 -8
BITMAP
000000
000000
000000
000000
03f800
07fc00
0f1e00
1e0f00
3c0780
380380
380380
380380
38e380
38e380
38e380
38e380
380380
380380
380380
3c0780
1e0f00
0f1e00
07fc00
03f800
000000
000000
000000
000000
000000
000000
000000
000000
ENDCHAR
STARTCHAR 1
ENCODING 33
SWIDTH 563 0
DWIDTH 18 0
BBX 18 32 0 -8
BITMAP
000000
000000
000000
000000
00e000
01e000
03e000
07e000
0fe000
0ee000
00e000
00e000
00e000
00e000
00e000
00e000
00e000
00e000
00e000
00e000
00e000
00e000
00e000
00e000
000000
000000
000000
000000
000000
000000
000000
000000
ENDCHAR
STARTCHAR 2
ENCODING 34
SWIDTH 563 0
DWIDTH 18 0
BBX 18 32 0 -8
BITMAP
000000
000000
000000
000000
03fe00
07ff00
0f0780
1e0380
3c0380
380380
000380
000780
000f00
001e00
003c00
007800
00f000
01e000
03c000
078000
0f0000
1e0000
3fff80
3fff80
000000
000000
000000
000000
000000
000000
000000
000000
ENDCHAR
STARTCHAR 3
ENCODING 35
SWIDTH 563 0
DWIDTH 18 0
BBX 18 32 0 -8
BITMAP
000000
000000
000000
000000
0fff80
0fff80
000380
000780
000f00
001e00
003c00
007800
00f800
01fc00
001e00
000f00
000780
000380
000380
000780
380f00
3c1e00
1ffc00
0ff800
000000
000000
000000
000000
000000
000000
000000
000000
ENDCHAR
STARTCHAR 4
ENCODING 36
SWIDTH 563 0
DWIDTH 18 0
BBX 18 32 0 -8
BITMAP
000000
000000
000000
000000
003e00
007e00
00fe00
01ee00
03ce00
078e00
0f0e00
1e0e00
3c0e00
380e00
380e00
380e00
3fff80
3fff80
000e00
000e00
000e00
000e00
000e00
000e00
000000
000000
000000
000000
000000
000000
000000
000000
ENDCHAR
STARTCHAR 5
ENCODING 37
SWIDTH 563 0
DWIDTH 18 0
BBX 18 32 0 -8
BITMAP
000000
000000
000000
000000
3fff80
3fff80
380000
380000
380000
380000
3ff800
3ffc00
001e00
000f00
000780
000380
000380
000380
000380
000780
000f00
001e00
3ffc00
3ff800
000000
000000
000000
000000
000000
000000
000000
000000
ENDCHAR
STARTCHAR 6
ENCODING 38
SWIDTH 563 0
DWIDTH 18 0
BBX 18 32 0 -8
BITMAP
000000
000000
000000
000000
038000
078000
0f0000
1e0000
3c0000
380000
380000
380000
3bf800
3ffc00
3f1e00
3e0f00
3c0780
380380
380380
3c0780
1e0f00
0f1e00
07fc00
03f800
000000
000000
000000
000000
000000
000000
000000
000000
ENDCHAR
STARTCHAR 7
ENCODING 39
SWIDTH 563 0
DWIDTH 18 0
BBX 18 32 0 -8
BITMAP
000000
000000
000000
000000
3fff80
3fff80
000380
000780
000f00
001e00
003c00
007800
00f000
01e000
03c000
038000
038000
038000
038000
038000
038000
038000
038000
038000
000000
000000
000000
000000
000000
000000
000000
000000
ENDCHAR
STARTCHAR 8
ENCODING 40
SWIDTH 563 0
DWIDTH 18 0
BBX 18 32 0 -8
BITMAP
000000
000000
000000
000000
03f800
07fc00
0f1e00
0e0e00
0e0e00
0e0e00
0e0e00
0f1e00
07fc00
07fc00
0f1e00
1e0f00
3c0780
380380
380380
3c0780
1e0f00
0f1e00
07fc00
03f800
000000
000000
000000
000000
000000
000000
000000
000000
ENDCHAR
STARTCHAR 9
ENCODING 41
SWIDTH 563 0
DWIDTH 18 0
BBX 18 32 0 -8
BITMAP
000000
000000
000000
000000
03fe00
07ff00
0f0780
1e0380
3c0380
380780
380f80
381f80
383f80
3c7b80
1ff380
0fe380
000380
000380
000380
000380
000380
000780
000f00
000e00
000000
000000
000000
000000
000000
000000
000000
000000
ENDCHAR
STARTCHAR ssharp
ENCODING 42
SWIDTH 563 0
DWIDTH 18 0
BBX 18 32 0 -8
BITMAP
000000
000000
000000
000000
03e000
07f000
0f7800
1e3800
3c3800
387800
38f000
39f000
387800
383c00
381e00
380f00
380780
380380
380380
380380
3b8380
3bc780
39ff00
38fe00
000000
000000
000000
000000
000000
000000
000000
000000
ENDCHAR
STARTCHAR section
ENCODING 43
SWIDTH 563 0
DWIDTH 18 0
BBX 18 32 0 -8
BITMAP
000000
000000
000000
000000
03f800
07f800
0f0000
0e0000
0e0000
1f0000
3f8000
3bc000
39e000
38f000
387800
3c3c00
1e1e00
0f0e00
078e00
03ce00
01ee00
00fe00
007c00
003800
003800
007800
0ff000
0fe000
000000
000000
000000
000000
ENDCHAR
STARTCHAR numbersign
ENCODING 44
SWIDTH 563 0
DWIDTH 18 0
BBX 18 32 0 -8
BITMAP
000000
000000
000000
000000
000000
000000
0e3800
0e3800
3ffe00
3ffe00
0e3800
0e3800
0e3800
0e3800
3ffe00
3ffe00
0e3800
0e3800
000000
000000
000000
000000
000000
000000
000000
000000
000000
000000
000000
000000
000000
000000
ENDCHAR
STARTCHAR at
ENCODING 45
SWIDTH 563 0
DWIDTH 18 0
BBX 18 32 0 -8
BITMAP
000000
000000
000000
000000
0ffe00
1fff00
3c0780
380380
380380
380380
38fb80
39fb80
3bbb80
3bbf80
3bff00
3bfe00
380000
380000
380000
380000
380000
3c0000
1fff80
0fff80
000000
000000
000000
000000
000000
000000
000000
000000
ENDCHAR
STARTCHAR percent
ENCODING 46
SWIDTH 563 0
DWIDTH 18 0
BBX 18 32 0 -8
BITMAP
000000
000000
000000
000000
0e0000
1f0000
3b8000
3b8000
1f0380
0e0780
000f00
001e00
003c00
007800
00f000
01e000
03c000
078000
0f0000
1e0000
3c0e00
381f00
003b80
003b80
001f00
000e00
000000
000000
000000
000000
000000
000000
ENDCHAR
STARTCHAR underscore
ENCODING 47
SWIDTH 563 0
DWIDTH 18 0
BBX 18 32 0 -8
BITMAP
000000
000000
000000
000000
000000
000000
000000
000000
000000
000000
000000
000000
000000
000000
000000
000000
000000
000000
000000
000000
000000
000000
000000
000000
3fff80
3fff80
000000
000000
000000
000000
000000
000000
ENDCHAR
STARTCHAR ampersand
ENCODING 48
SWIDTH 563 0
DWIDTH 18 0
BBX 18 32 0 -8
BITMAP
000000
000000
000000
000000
000000
000000
0f8000
1fc000
3de000
38e000
38e000
38e000
38e000
3de000
1fc000
1f8000
3b8380
3bc780
39ef00
38fe00
387c00
3c7c00
1ffe00
0fef00
000780
000380
000000
000000
000000
000000
000000
000000
ENDCHAR
STARTCHAR minus
ENCODING 49
SWIDTH 563 0
DWIDTH 18 0
BBX 18 32 0 -8
BITMAP
000000
000000
000000
000000
000000
000000
000000
000000
000000
000000
000000
000000
000000
000000
0ffe00
0ffe00
000000
000000
000000
000000
000000
000000
000000
000000
000000
000000
000000
000000
000000
000000
000000
000000
ENDCHAR
STARTCHAR period
ENCODING 50
SWIDTH 563 0
DWIDTH 18 0
BBX 18 32 0 -8
BITMAP
000000
000000
000000
000000
000000
000000
000000
000000
000000
000000
000000
000000
000000
000000
000000
000000
000000
000000
000000
000000
03e000
03e000
03e000
03e000
000000
000000
000000
000000
000000
000000
000000
000000
ENDCHAR
STARTCHAR comma
ENCODING 51
SWIDTH 563 0
DWIDTH 18 0
BBX 18 32 0 -8
BITMAP
000000
000000
000000
000000
000000
000000
000000
000000
000000
000000
000000
000000
000000
000000
000000
000000
000000
000000
000000
000000
00f800
00f800
00f800
01f800
03f000
07e000
0fc000
0f8000
000000
000000
000000
000000
ENDCHAR
STARTCHAR colon
ENCODING 52
SWIDTH 563 0
DWIDTH 18 0
BBX 18 32 0 -8
BITMAP
000000
000000
000000
000000
000000
000000
000000
000000
000000
000000
000000
000000
03e000
03e000
03e000
03e000
000000
000000
000000
000000
03e000
03e000
03e000
03e000
000000
000000
000000
000000
000000
000000
000000
000000
ENDCHAR
STARTCHAR plus
ENCODING 53
SWIDTH 563 0
DWIDTH 18 0
BBX 18 32 0 -8
BITMAP
000000
000000
000000
000000
000000
000000
000000
000000
00e000
00e000
00e000
00e000
00e000
00e000
3fff80
3fff80
00e000
00e000
00e000
00e000
00e000
00e000
000000
000000
000000
000000
000000
000000
000000
000000
000000
000000
ENDCHAR
STARTCHAR notsign
ENCODING 54
SWIDTH 563 0
DWIDTH 18 0
BBX 18 32 0 -8
BITMAP
000000
000000
000000
000000
000000
000000
3fff80
3fff80
000380
000380
000380
000380
000000
000000
000000
000000
000000
000000
000000
000000
000000
000000
000000
000000
000000
000000
000000
000000
000000
000000
000000
000000
ENDCHAR
STARTCHAR macron
ENCODING 55
SWIDTH 563 0
DWIDTH 18 0
BBX 18 32 0 -8
BITMAP
000000
000000
000000
000000
3fff80
3fff80
000000
000000
000000
000000
000000
000000
000000
000000
000000
000000
000000
000000
000000
000000
000000
000000
000000
000000
000000
000000
000000
000000
000000
000000
000000
000000
ENDCHAR
STARTCHAR degree
ENCODING 56
SWIDTH 563 0
DWIDTH 18 0
BBX 18 32 0 -8
BITMAP
000000
000000
000000
000000
03e000
07f000
0f7800
0e3800
0e3800
0f7800
07f000
03e000
000000
000000
000000
000000
000000
000000
000000
000000
000000
000000
000000
000000
000000
000000
000000
000000
000000
000000
000000
000000
ENDCHAR
STARTCHAR periodcentered
ENCODING 57
SWIDTH 563 0
DWIDTH 18 0
BBX 18 32 0 -8
BITMAP
000000
000000
000000
000000
000000
000000
000000
000000
000000
000000
000000
000000
000000
000000
03e000
03e000
03e000
03e000
000000
000000
000000
000000
000000
000000
000000
000000
000000
000000
000000
000000
000000
000000
ENDCHAR
STARTCHAR asciicircum
ENCODING 58
SWIDTH 563 0
DWIDTH 18 0
BBX 18 32 0 -8
BITMAP
000000
000000
000000
000000
00e000
01f000
03f800
07bc00
0f1e00
0e0e00
000000
000000
000000
000000
000000
000000
000000
000000
000000
000000
000000
000000
000000
000000
000000
000000
000000
000000
000000
000000
000000
000000
ENDCHAR
STARTCHAR asciitilde
ENCODING 59
SWIDTH 563 0
DWIDTH 18 0
BBX 18 32 0 -8
BITMAP
000000
000000
000000
000000
0f8000
1fc000
3de380
38f780
007f00
003e00
000000
000000
000000
000000
000000
000000
000000
000000
000000
000000
000000
000000
000000
000000
000000
000000
000000
000000
000000
000000
000000
000000
ENDCHAR
STARTCHAR diaeresis
ENCODING 60
SWIDTH 563 0
DWIDTH 18 0
BBX 18 32 0 -8
BITMAP
000000
000000
000000
000000
3e0f80
3e0f80
3e0f80
3e0f80
000000
000000
000000
000000
000000
000000
000000
000000
000000
000000
000000
000000
000000
000000
000000
000000
000000
000000
000000
000000
000000
000000
000000
000000
ENDCHAR
STARTCHAR grave
ENCODING 61
SWIDTH 563 0
DWIDTH 18 0
BBX 18 32 0 -8
BITMAP
000000
000000
000000
000000
038000
03c000
01e000
00f000
007800
003800
000000
000000
000000
000000
000000
000000
000000
000000
000000
000000
000000
000000
000000
000000
000000
000000
000000
000000
000000
000000
000000
000000
ENDCHAR
STARTCHAR acute
ENCODING 62
SWIDTH 563 0
DWIDTH 18 0
BBX 18 32 0 -8
BITMAP
000000
000000
000000
000000
003800
007800
00f000
01e000
03c000
038000
000000
000000
000000
000000
000000
000000
000000
000000
000000
000000
000000
000000
000000
000000
000000
000000
000000
000000
000000
000000
000000
000000
ENDCHAR
STARTCHAR cedilla
ENCODING 63
SWIDTH 563 0
DWIDTH 18 0
BBX 18 32 0 -8
BITMAP
000000
000000
000000
000000
000000
000000
000000
000000
000000
000000
000000
000000
000000
000000
000000
000000
000000
000000
000000
000000
00e000
00e000
00e000
00e000
00e000
01e000
0fc000
0f8000
000000
000000
000000
000000
ENDCHAR
STARTCHAR agrave
ENCODING 64
SWIDTH 563 0
DWIDTH 18 0
BBX 18 32 0 -8
BITMAP
000000
000000
0e0000
0f0000
078000
03c000
01e000
00e000
000000
000000
0ff800
0ffc00
001e00
000e00
000e00
000e00
0ffe00
1ffe00
3c0e00
380e00
380e00
3c0e00
1fff80
0fff80
000000
000000
000000
000000
000000
000000
000000
000000
ENDCHAR
STARTCHAR egrave
ENCODING 65
SWIDTH 563 0
DWIDTH 18 0
BBX 18 32 0 -8
BITMAP
000000
000000
0e0000
0f0000
078000
03c000
01e000
00e000
000000
000000
0ff800
1ffc00
3c1e00
380e00
380e00
380e00
3ffe00
3ffe00
380000
380000
380000
3c0000
1ffe00
0ffe00
000000
000000
000000
000000
000000
000000
000000
000000
ENDCHAR
STARTCHAR igrave
ENCODING 66
SWIDTH 563 0
DWIDTH 18 0
BBX 18 32 0 -8
BITMAP
000000
000000
038000
03c000
01e000
00f000
007800
003800
000000
000000
000000
000000
00e000
00e000
00e000
00e000
00e000
00e000
00e000
00e000
00e000
00e000
00e000
00e000
000000
000000
000000
000000
000000
000000
000000
000000
ENDCHAR
STARTCHAR ograve
ENCODING 67
SWIDTH 563 0
DWIDTH 18 0
BBX 18 32 0 -8
BITMAP
000000
000000
0e0000
0f0000
078000
03c000
01e000
00e000
000000
000000
0ff800
1ffc00
3c1e00
380e00
380e00
380e00
380e00
380e00
380e00
380e00
380e00
3c1e00
1ffc00
0ff800
000000
000000
000000
000000
000000
000000
000000
000000
ENDCHAR
STARTCHAR ugrave
ENCODING 68
SWIDTH 563 0
DWIDTH 18 0
BBX 18 32 0 -8
BITMAP
000000
000000
0e0000
0f0000
078000
03c000
01e000
00e000
000000
000000
380e00
380e00
380e00
380e00
380e00
380e00
380e00
380e00
380e00
380e00
380e00
3c1e00
1fff80
0ffb80
000000
000000
000000
000000
000000
000000
000000
000000
ENDCHAR
STARTCHAR atilde
ENCODING 69
SWIDTH 563 0
DWIDTH 18 0
BBX 18 32 0 -8
BITMAP
000000
000000
000000
000000
03e380
07f780
0f7f00
0e3e00
000000
000000
0ff800
0ffc00
001e00
000e00
000e00
000e00
0ffe00
1ffe00
3c0e00
380e00
380e00
3c0e00
1fff80
0fff80
000000
000000
000000
000000
000000
000000
000000
000000
ENDCHAR
STARTCHAR otilde
ENCODING 70
SWIDTH 563 0
DWIDTH 18 0
BBX 18 32 0 -8
BITMAP
000000
000000
000000
000000
0f8e00
1fde00
3dfc00
38f800
000000
000000
0ff800
1ffc00
3c1e00
380e00
380e00
380e00
380e00
380e00
380e00
380e00
380e00
3c1e00
1ffc00
0ff800
000000
000000
000000
000000
000000
000000
000000
000000
ENDCHAR
STARTCHAR ydiaeresis
ENCODING 71
SWIDTH 563 0
DWIDTH 18 0
BBX 18 32 0 -8
BITMAP
000000
000000
000000
000000
0e3800
0e3800
000000
000000
000000
000000
380e00
380e00
380e00
380e00
380e00
380e00
380e00
3c0e00
1e0e00
0f1e00
07bc00
03f800
01f000
01e000
03c000
078000
0f0000
1e0000
3c0000
380000
000000
000000
ENDCHAR
STARTCHAR Yacute
ENCODING 72
SWIDTH 563 0
DWIDTH 18 0
BBX 18 32 0 -8
BITMAP
000000
000000
000e00
001e00
003c00
007800
00f000
00e000
380380
3c0780
1e0f00
0f1e00
07bc00
03f800
01f000
00e000
00e000
00e000
00e000
00e000
00e000
00e000
00e000
00e000
000000
000000
000000
000000
000000
000000
000000
000000
ENDCHAR
STARTCHAR yacute
ENCODING 73
SWIDTH 563 0
DWIDTH 18 0
BBX 18 32 0 -8
BITMAP
000000
000000
000e00
001e00
003c00
007800
00f000
00e000
000000
000000
380e00
380e00
380e00
380e00
380e00
380e00
380e00
3c0e00
1e0e00
0f1e00
07bc00
03f800
01f000
01e000
03c000
078000
0f0000
1e0000
3c0000
380000
000000
000000
ENDCHAR
STARTCHAR eacute
ENCODING 74
SWIDTH 563 0
DWIDTH 18 0
BBX 18 32 0 -8
BITMAP
000000
000000
000e00
001e00
003c00
007800
00f000
00e000
000000
000000
0ff800
1ffc00
3c1e00
380e00
380e00
380e00
3ffe00
3ffe00
380000
380000
380000
3c0000
1ffe00
0ffe00
000000
000000
000000
000000
000000
000000
000000
000000
ENDCHAR
STARTCHAR onequarter
ENCODING 75
SWIDTH 563 0
DWIDTH 18 0
BBX 18 32 0 -8
BITMAP
000000
000000
000000
070000
0f0000
1f0000
070000
070380
070780
070f00
071e00
073c00
007800
00f000
01e000
03c780
078f80
0f1f80
1e3f80
3c3b80
383fc0
003fc0
000380
000380
000000
000000
000000
000000
000000
000000
000000
000000
ENDCHAR
STARTCHAR onehalf
ENCODING 76
SWIDTH 563 0
DWIDTH 18 0
BBX 18 32 0 -8
BITMAP
000000
000000
000000
070000
0f0000
1f0000
070000
070380
070780
070f00
071e00
073c00
007800
00f000
01e000
03cf80
079fc0
0f1dc0
1e03c0
3c0780
380f00
001e00
001fc0
001fc0
000000
000000
000000
000000
000000
000000
000000
000000
ENDCHAR
STARTCHAR threequarters
ENCODING 77
SWIDTH 563 0
DWIDTH 18 0
BBX 18 32 0 -8
BITMAP
000000
000000
000000
3f8000
3f8000
078000
0f0000
1f0380
078780
038f00
3b9e00
3fbc00
1f7800
00f000
01e000
03c780
078f80
0f1f80
1e3f80
3c3b80
383fc0
003fc0
000380
000380
000000
000000
000000
000000
000000
000000
000000
000000
ENDCHAR
STARTCHAR udiaeresis
ENCODING 78
SWIDTH 563 0
DWIDTH 18 0
BBX 18 32 0 -8
BITMAP
000000
000000
000000
000000
0e3800
0e3800
000000
000000
000000
000000
380e00
380e00
380e00
380e00
380e00
380e00
380e00
380e00
380e00
380e00
380e00
3c1f00
1fff80
0ffb80
000000
000000
000000
000000
000000
000000
000000
000000
ENDCHAR
STARTCHAR ccedilla
ENCODING 79
SWIDTH 563 0
DWIDTH 18 0
BBX 18 32 0 -8
BITMAP
000000
000000
000000
000000
000000
000000
000000
000000
000000
000000
03fe00
07fe00
0f0000
1e0000
3c0000
380000
380000
380000
380000
3c0000
1e0000
0f0000
07fe00
03fe00
00f000
00e000
0fe000
0fc000
000000
000000
000000
000000
ENDCHAR
STARTCHAR adiaeresis
ENCODING 80
SWIDTH 563 0
DWIDTH 18 0
BBX 18 32 0 -8
BITMAP
000000
000000
000000
000000
0e3800
0e3800
000000
000000
000000
000000
0ff800
0ffc00
001e00
000e00
000e00
000e00
0ffe00
1ffe00
3c0e00
380e00
380e00
3c0e00
1fff80
0fff80
000000
000000
000000
000000
000000
000000
000000
000000
ENDCHAR
STARTCHAR ediaeresis
ENCODING 81
SWIDTH 563 0
DWIDTH 18 0
BBX 18 32 0 -8
BITMAP
000000
000000
000000
000000
0e3800
0e3800
000000
000000
000000
000000
0ff800
1ffc00
3c1e00
380e00
380e00
380e00
3ffe00
3ffe00
380000
380000
380000
3c0000
1ffe00
0ffe00
000000
000000
000000
000000
000000
000000
000000
000000
ENDCHAR
STARTCHAR idiaeresis
ENCODING 82
SWIDTH 563 0
DWIDTH 18 0
BBX 18 32 0 -8
BITMAP
000000
000000
000000
000000
0e0e00
0e0e00
000000
000000
000000
000000
00e000
00e000
00e000
00e000
00e000
00e000
00e000
00e000
00e000
00e000
00e000
00e000
00e000
00e000
000000
000000
000000
000000
000000
000000
000000
000000
ENDCHAR
STARTCHAR odiaeresis
ENCODING 83
SWIDTH 563 0
DWIDTH 18 0
BBX 18 32 0 -8
BITMAP
000000
000000
000000
000000
0e3800
0e3800
000000
000000
000000
000000
0ff800
1ffc00
3c1e00
380e00
380e00
380e00
380e00
380e00
380e00
380e00
380e00
3c1e00
1ffc00
0ff800
000000
000000
000000
000000
000000
000000
000000
000000
ENDCHAR
STARTCHAR mu
ENCODING 84
SWIDTH 563 0
DWIDTH 18 0
BBX 18 32 0 -8
BITMAP
000000
000000
000000
000000
000000
000000
000000
000000
000000
000000
380e00
380e00
380e00
380e00
380e00
380e00
380e00
380e00
380e00
380e00
380e00
3e1f00
3fff80
3ffb80
380000
380000
380000
380000
380000
380000
000000
000000
ENDCHAR
STARTCHAR acircumflex
ENCODING 85
SWIDTH 563 0
DWIDTH 18 0
BBX 18 32 0 -8
BITMAP
000000
000000
000000
000000
00e000
01f000
03f800
03b800
000000
000000
0ff800
0ffc00
001e00
000e00
000e00
000e00
0ffe00
1ffe00
3c0e00
380e00
380e00
3c0e00
1fff80
0fff80
000000
000000
000000
000000
000000
000000
000000
000000
ENDCHAR
STARTCHAR ecircumflex
ENCODING 86
SWIDTH 563 0
DWIDTH 18 0
BBX 18 32 0 -8
BITMAP
000000
000000
000000
000000
00e000
01f000
03f800
03b800
000000
000000
0ff800
1ffc00
3c1e00
380e00
380e00
380e00
3ffe00
3ffe00
380000
380000
380000
3c0000
1ffe00
0ffe00
000000
000000
000000
000000
000000
000000
000000
000000
ENDCHAR
STARTCHAR icircumflex
ENCODING 87
SWIDTH 563 0
DWIDTH 18 0
BBX 18 32 0 -8
BITMAP
000000
000000
000000
000000
00e000
01f000
03f800
03b800
000000
000000
000000
000000
00e000
00e000
00e000
00e000
00e000
00e000
00e000
00e000
00e000
00e000
00e000
00e000
000000
000000
000000
000000
000000
000000
000000
000000
ENDCHAR
STARTCHAR ocircumflex
ENCODING 88
SWIDTH 563 0
DWIDTH 18 0
BBX 18 32 0 -8
BITMAP
000000
000000
000000
000000
00e000
01f000
03f800
03b800
000000
000000
03f800
07fc00
0f1e00
0e0e00
0e0e00
0e0e00
0e0e00
0e0e00
0e0e00
0e0e00
0e0e00
0f1e00
07fc00
03f800
000000
000000
000000
000000
000000
000000
000000
000000
ENDCHAR
STARTCHAR ucircumflex
ENCODING 89
SWIDTH 563 0
DWIDTH 18 0
BBX 18 32 0 -8
BITMAP
000000
000000
000000
000000
038000
07c000
0fe000
0ee000
000000
000000
383800
383800
383800
383800
383800
383800
383800
383800
383800
383800
383800
3c7c00
1ffe00
0fee00
000000
000000
000000
000000
000000
000000
000000
000000
ENDCHAR
STARTCHAR aacute
ENCODING 90
SWIDTH 563 0
DWIDTH 18 0
BBX 18 32 0 -8
BITMAP
000000
000000
000e00
001e00
003c00
007800
00f000
00e000
000000
000000
0ff800
0ffc00
001e00
000e00
000e00
000e00
0ffe00
1ffe00
3c0e00
380e00
380e00
3c0e00
1fff80
0fff80
000000
000000
000000
000000
000000
000000
000000
000000
ENDCHAR
STARTCHAR multiply
ENCODING 91
SWIDTH 563 0
DWIDTH 18 0
BBX 18 32 0 -8
BITMAP
000000
000000
000000
000000
000000
000000
000000
000000
000000
000000
0e0e00
0f1e00
07bc00
03f800
01f000
01f000
03f800
07bc00
0f1e00
0e0e00
000000
000000
000000
000000
000000
000000
000000
000000
000000
000000
000000
000000
ENDCHAR
STARTCHAR iacute
ENCODING 92
SWIDTH 563 0
DWIDTH 18 0
BBX 18 32 0 -8
BITMAP
000000
000000
003800
007800
00f000
01e000
03c000
038000
000000
000000
000000
000000
00e000
00e000
00e000
00e000
00e000
00e000
00e000
00e000
00e000
00e000
00e000
00e000
000000
000000
000000
000000
000000
000000
000000
000000
ENDCHAR
STARTCHAR oacute
ENCODING 93
SWIDTH 563 0
DWIDTH 18 0
BBX 18 32 0 -8
BITMAP
000000
000000
003800
007800
00f000
01e000
03c000
038000
000000
000000
0ff800
1ffc00
3c1e00
380e00
380e00
380e00
380e00
380e00
380e00
380e00
380e00
3c1e00
1ffc00
0ff800
000000
000000
000000
000000
000000
000000
000000
000000
ENDCHAR
STARTCHAR uacute
ENCODING 94
SWIDTH 563 0
DWIDTH 18 0
BBX 18 32 0 -8
BITMAP
000000
000000
003800
007800
00f000
01e000
03c000
038000
000000
000000
380e00
380e00
380e00
380e00
380e00
380e00
380e00
380e00
380e00
380e00
380e00
3c1f00
1fff80
0ffb80
000000
000000
000000
000000
000000
000000
000000
000000
ENDCHAR
STARTCHAR ntilde
ENCODING 95
SWIDTH 563 0
DWIDTH 18 0
BBX 18 32 0 -8
BITMAP
000000
000000
000000
000000
03e380
07f780
0f7f00
0e3e00
000000
000000
3bfe00
3fff00
1f0780
0e0380
0e0380
0e0380
0e0380
0e0380
0e0380
0e0380
0e0380
0e0380
0e0380
0e0380
000000
000000
000000
000000
000000
000000
000000
000000
ENDCHAR
STARTCHAR Agrave
ENCODING 96
SWIDTH 563 0
DWIDTH 18 0
BBX 18 32 0 -8
BITMAP
000000
000000
00e000
00f000
007800
003c00
001e00
000e00
00e000
01f000
03f800
07bc00
0f1e00
1e0f00
3c0780
380380
3fff80
3fff80
380380
380380
380380
380380
380380
380380
000000
000000
000000
000000
000000
000000
000000
000000
ENDCHAR
STARTCHAR Egrave
ENCODING 97
SWIDTH 563 0
DWIDTH 18 0
BBX 18 32 0 -8
BITMAP
000000
000000
0e0000
0f0000
078000
03c000
01e000
00e000
3fff80
3fff80
380000
380000
380000
380000
3ff800
3ff800
380000
380000
380000
380000
380000
380000
3fff80
3fff80
000000
000000
000000
000000
000000
000000
000000
000000
ENDCHAR
STARTCHAR Igrave
ENCODING 98
SWIDTH 563 0
DWIDTH 18 0
BBX 18 32 0 -8
BITMAP
000000
000000
038000
03c000
01e000
00f000
007800
003800
000000
000000
03f800
03f800
00e000
00e000
00e000
00e000
00e000
00e000
00e000
00e000
00e000
00e000
03f800
03f800
000000
000000
000000
000000
000000
000000
000000
000000
ENDCHAR
STARTCHAR Ograve
ENCODING 99
SWIDTH 563 0
DWIDTH 18 0
BBX 18 32 0 -8
BITMAP
000000
000000
0e0000
0f0000
078000
03c000
01e000
00e000
0ffe00
1fff00
3c0780
380380
380380
380380
380380
380380
380380
380380
380380
380380
380380
3c0780
1fff00
0ffe00
000000
000000
000000
000000
000000
000000
000000
000000
ENDCHAR
STARTCHAR Ugrave
ENCODING 100
SWIDTH 563 0
DWIDTH 18 0
BBX 18 32 0 -8
BITMAP
000000
000000
0e0000
0f0000
078000
03c000
01e000
00e000
380380
380380
380380
380380
380380
380380
380380
380380
380380
380380
380380
380380
380380
3c0780
1fff00
0ffe00
000000
000000
000000
000000
000000
000000
000000
000000
ENDCHAR
STARTCHAR Atilde
ENCODING 101
SWIDTH 563 0
DWIDTH 18 0
BBX 18 32 0 -8
BITMAP
000000
000000
000000
000000
03e380
07f780
0f7f00
0e3e00
000000
000000
00e000
01f000
03f800
07bc00
0f1e00
1e0f00
3c0780
380380
3fff80
3fff80
380380
380380
380380
380380
000000
000000
000000
000000
000000
000000
000000
000000
ENDCHAR
STARTCHAR Otilde
ENCODING 102
SWIDTH 563 0
DWIDTH 18 0
BBX 18 32 0 -8
BITMAP
000000
000000
03e380
07f780
0f7f00
0e3e00
0ffe00
1fff00
3c0780
380380
380380
380380
380380
380380
380380
380380
380380
380380
380380
380380
380380
3c0780
1fff00
0ffe00
000000
000000
000000
000000
000000
000000
000000
000000
ENDCHAR
STARTCHAR onesuperior
ENCODING 103
SWIDTH 563 0
DWIDTH 18 0
BBX 18 32 0 -8
BITMAP
000000
000000
000000
000000
00e000
01e000
03e000
07e000
07e000
00e000
00e000
00e000
00e000
00e000
00e000
00e000
00e000
000000
000000
000000
000000
000000
000000
000000
000000
000000
000000
000000
000000
000000
000000
000000
ENDCHAR
STARTCHAR twosuperior
ENCODING 104
SWIDTH 563 0
DWIDTH 18 0
BBX 18 32 0 -8
BITMAP
000000
000000
000000
000000
01f000
03f800
07bc00
071c00
001c00
003c00
007800
00f000
01e000
03c000
078000
07fc00
07fc00
000000
000000
000000
000000
000000
000000
000000
000000
000000
000000
000000
000000
000000
000000
000000
ENDCHAR
STARTCHAR threesuperior
ENCODING 105
SWIDTH 563 0
DWIDTH 18 0
BBX 18 32 0 -8
BITMAP
000000
000000
000000
000000
07fc00
07fc00
003c00
007800
00f000
01f000
03f800
003c00
001c00
001c00
073c00
07f800
03f000
000000
000000
000000
000000
000000
000000
000000
000000
000000
000000
000000
000000
000000
000000
000000
ENDCHAR
STARTCHAR ordfeminine
ENCODING 106
SWIDTH 563 0
DWIDTH 18 0
BBX 18 32 0 -8
BITMAP
000000
000000
000000
000000
000000
000000
0ff800
0ffc00
001e00
000e00
000e00
000e00
0ffe00
1ffe00
3c0e00
380e00
380e00
3c0e00
1fff80
1fff80
000000
000000
3fff80
3fff80
000000
000000
000000
000000
000000
000000
000000
000000
ENDCHAR
STARTCHAR masculine
ENCODING 107
SWIDTH 563 0
DWIDTH 18 0
BBX 18 32 0 -8
BITMAP
000000
000000
000000
000000
000000
000000
0ff800
1ffc00
3c1e00
380e00
380e00
380e00
380e00
380e00
380e00
380e00
380e00
3c1e00
1ffc00
0ff800
000000
000000
3ffe00
3ffe00
000000
000000
000000
000000
000000
000000
000000
000000
ENDCHAR
STARTCHAR guillemotleft
ENCODING 108
SWIDTH 563 0
DWIDTH 18 0
BBX 18 32 0 -8
BITMAP
000000
000000
000000
000000
000000
000000
000000
00e380
01e780
03cf00
079e00
0f3c00
1e7800
3cf000
79e000
79e000
3cf000
1e7800
0f3c00
079e00
03cf00
01e780
00e380
000000
000000
000000
000000
000000
000000
000000
000000
000000
ENDCHAR
STARTCHAR guillemotright
ENCODING 109
SWIDTH 563 0
DWIDTH 18 0
BBX 18 32 0 -8
BITMAP
000000
000000
000000
000000
000000
000000
000000
38e000
3cf000
1e7800
0f3c00
079e00
03cf00
01e780
00f3c0
00f3c0
01e780
03cf00
079e00
0f3c00
1e7800
3cf000
38e000
000000
000000
000000
000000
000000
000000
000000
000000
000000
ENDCHAR
STARTCHAR exclamdown
ENCODING 110
SWIDTH 563 0
DWIDTH 18 0
BBX 18 32 0 -8
BITMAP
000000
000000
000000
000000
00e000
00e000
000000
000000
000000
000000
00e000
00e000
00e000
00e000
00e000
00e000
00e000
00e000
00e000
00e000
00e000
00e000
00e000
00e000
000000
000000
000000
000000
000000
000000
000000
000000
ENDCHAR
STARTCHAR questiondown
ENCODING 111
SWIDTH 563 0
DWIDTH 18 0
BBX 18 32 0 -8
BITMAP
000000
000000
000000
000000
003800
003800
000000
000000
000000
000000
003800
003800
003800
007800
00f000
01e000
03c000
078000
0f0380
0e0380
0e0380
0f0780
07ff00
03fe00
000000
000000
000000
000000
000000
000000
000000
000000
ENDCHAR
STARTCHAR Adiaeresis
ENCODING 112
SWIDTH 563 0
DWIDTH 18 0
BBX 18 32 0 -8
BITMAP
000000
000000
0e0e00
0e0e00
000000
000000
00e000
01f000
03f800
07bc00
0f1e00
1e0f00
3c0780
380380
380380
380380
3fff80
3fff80
380380
380380
380380
380380
380380
380380
000000
000000
000000
000000
000000
000000
000000
000000
ENDCHAR
STARTCHAR Ediaeresis
ENCODING 113
SWIDTH 563 0
DWIDTH 18 0
BBX 18 32 0 -8
BITMAP
000000
000000
0e0e00
0e0e00
000000
000000
3fff80
3fff80
380000
380000
380000
380000
380000
380000
3ff800
3ff800
380000
380000
380000
380000
380000
380000
3fff80
3fff80
000000
000000
000000
000000
000000
000000
000000
000000
ENDCHAR
STARTCHAR Idiaeresis
ENCODING 114
SWIDTH 563 0
DWIDTH 18 0
BBX 18 32 0 -8
BITMAP
000000
000000
0e0e00
0e0e00
000000
000000
03f800
03f800
00e000
00e000
00e000
00e000
00e000
00e000
00e000
00e000
00e000
00e000
00e000
00e000
00e000
00e000
03f800
03f800
000000
000000
000000
000000
000000
000000
000000
000000
ENDCHAR
STARTCHAR Odiaeresis
ENCODING 115
SWIDTH 563 0
DWIDTH 18 0
BBX 18 32 0 -8
BITMAP
000000
000000
0e0e00
0e0e00
000000
000000
0ffe00
1fff00
3c0780
380380
380380
380380
380380
380380
380380
380380
380380
380380
380380
380380
380380
3c0780
1fff00
0ffe00
000000
000000
000000
000000
000000
000000
000000
000000
ENDCHAR
STARTCHAR Udiaeresis
ENCODING 116
SWIDTH 563 0
DWIDTH 18 0
BBX 18 32 0 -8
BITMAP
000000
000000
0e0e00
0e0e00
000000
000000
380380
380380
380380
380380
380380
380380
380380
380380
380380
380380
380380
380380
380380
380380
380380
3c0780
1fff00
0ffe00
000000
000000
000000
000000
000000
000000
000000
000000
ENDCHAR
STARTCHAR Acircumflex
ENCODING 117
SWIDTH 563 0
DWIDTH 18 0
BBX 18 32 0 -8
BITMAP
000000
000000
00e000
01f000
03f800
03b800
000000
000000
00e000
01f000
03f800
07bc00
0f1e00
1e0f00
3c0780
380380
3fff80
3fff80
380380
380380
380380
380380
380380
380380
000000
000000
000000
000000
000000
000000
000000
000000
ENDCHAR
STARTCHAR Ecircumflex
ENCODING 118
SWIDTH 563 0
DWIDTH 18 0
BBX 18 32 0 -8
BITMAP
000000
000000
00e000
01f000
03f800
03b800
000000
000000
3fff80
3fff80
380000
380000
380000
380000
380000
380000
3ff800
3ff800
380000
380000
380000
380000
3fff80
3fff80
000000
000000
000000
000000
000000
000000
000000
000000
ENDCHAR
STARTCHAR Icircumflex
ENCODING 119
SWIDTH 563 0
DWIDTH 18 0
BBX 18 32 0 -8
BITMAP
000000
000000
00e000
01f000
03f800
03b800
000000
000000
03f800
03f800
00e000
00e000
00e000
00e000
00e000
00e000
00e000
00e000
00e000
00e000
00e000
00e000
03f800
03f800
000000
000000
000000
000000
000000
000000
000000
000000
ENDCHAR
STARTCHAR Ocircumflex
ENCODING 120
SWIDTH 563 0
DWIDTH 18 0
BBX 18 32 0 -8
BITMAP
000000
000000
00e000
01f000
03f800
03b800
000000
000000
0ffe00
1fff00
3c0780
380380
380380
380380
380380
380380
380380
380380
380380
380380
380380
3c0780
1fff00
0ffe00
000000
000000
000000
000000
000000
000000
000000
000000
ENDCHAR
STARTCHAR Ucircumflex
ENCODING 121
SWIDTH 563 0
DWIDTH 18 0
BBX 18 32 0 -8
BITMAP
000000
000000
00e000
01f000
03f800
03b800
000000
000000
380380
380380
380380
380380
380380
380380
380380
380380
380380
380380
380380
380380
380380
3c0780
1fff00
0ffe00
000000
000000
000000
000000
000000
000000
000000
000000
ENDCHAR
STARTCHAR Aacute
ENCODING 122
SWIDTH 563 0
DWIDTH 18 0
BBX 18 32 0 -8
BITMAP
000000
000000
00e000
01e000
03c000
078000
0f0000
0e0000
00e000
01f000
03f800
07bc00
0f1e00
1e0f00
3c0780
380380
3fff80
3fff80
380380
380380
380380
380380
380380
380380
000000
000000
000000
000000
000000
000000
000000
000000
ENDCHAR
STARTCHAR Eacute
ENCODING 123
SWIDTH 563 0
DWIDTH 18 0
BBX 18 32 0 -8
BITMAP
000000
000000
000e00
001e00
003c00
007800
00f000
00e000
3fff80
3fff80
380000
380000
380000
380000
380000
380000
3ff800
3ff800
380000
380000
380000
380000
3fff80
3fff80
000000
000000
000000
000000
000000
000000
000000
000000
ENDCHAR
STARTCHAR Iacute
ENCODING 124
SWIDTH 563 0
DWIDTH 18 0
BBX 18 32 0 -8
BITMAP
000000
000000
003800
007800
00f000
01e000
03c000
038000
000000
000000
03f800
03f800
00e000
00e000
00e000
00e000
00e000
00e000
00e000
00e000
00e000
00e000
03f800
03f800
000000
000000
000000
000000
000000
000000
000000
000000
ENDCHAR
STARTCHAR Oacute
ENCODING 125
SWIDTH 563 0
DWIDTH 18 0
BBX 18 32 0 -8
BITMAP
000000
000000
000e00
001e00
003c00
007800
00f000
00e000
0ffe00
1fff00
3c0780
380380
380380
380380
380380
380380
380380
380380
380380
380380
380380
3c0780
1fff00
0ffe00
000000
000000
000000
000000
000000
000000
000000
000000
ENDCHAR
STARTCHAR Uacute
ENCODING 126
SWIDTH 563 0
DWIDTH 18 0
BBX 18 32 0 -8
BITMAP
000000
000000
000e00
001e00
003c00
007800
00f000
00e000
380380
380380
380380
380380
380380
380380
380380
380380
380380
380380
380380
380380
380380
3c0780
1fff00
0ffe00
000000
000000
000000
000000
000000
000000
000000
000000
ENDCHAR
STARTCHAR Ntilde
ENCODING 127
SWIDTH 563 0
DWIDTH 18 0
BBX 18 32 0 -8
BITMAP
000000
000000
000000
000000
03e380
07f780
0f7f00
0e3e00
000000
000000
380380
3c0380
3e0380
3f0380
3f8380
3bc380
39e380
38f380
387b80
383f80
381f80
380f80
380780
380380
000000
000000
000000
000000
000000
000000
000000
000000
ENDCHAR
STARTCHAR a
ENCODING 128
SWIDTH 563 0
DWIDTH 18 0
BBX 18 32 0 -8
BITMAP
000000
000000
000000
000000
000000
000000
000000
000000
000000
000000
0ff800
0ffc00
001e00
000e00
000e00
000e00
0ffe00
1ffe00
3c0e00
380e00
380e00
3c0e00
1fff80
0fff80
000000
000000
000000
000000
000000
000000
000000
000000
ENDCHAR
STARTCHAR b
ENCODING 129
SWIDTH 563 0
DWIDTH 18 0
BBX 18 32 0 -8
BITMAP
000000
000000
000000
000000
380000
380000
380000
380000
380000
380000
3fe000
3ff000
387800
383c00
381e00
380e00
380e00
380e00
380e00
381e00
383c00
387800
3ff000
3fe000
000000
000000
000000
000000
000000
000000
000000
000000
ENDCHAR
STARTCHAR c
ENCODING 130
SWIDTH 563 0
DWIDTH 18 0
BBX 18 32 0 -8
BITMAP
000000
000000
000000
000000
000000
000000
000000
000000
000000
000000
03fe00
07fe00
0f0000
1e0000
3c0000
380000
380000
380000
380000
3c0000
1e0000
0f0000
07fe00
03fe00
000000
000000
000000
000000
000000
000000
000000
000000
ENDCHAR
STARTCHAR d
ENCODING 131
SWIDTH 563 0
DWIDTH 18 0
BBX 18 32 0 -8
BITMAP
000000
000000
000000
000000
000e00
000e00
000e00
000e00
000e00
000e00
03fe00
07fe00
0f0e00
1e0e00
3c0e00
380e00
380e00
380e00
380e00
3c0e00
1e0e00
0f0e00
07fe00
03fe00
000000
000000
000000
000000
000000
000000
000000
000000
ENDCHAR
STARTCHAR e
ENCODING 132
SWIDTH 563 0
DWIDTH 18 0
BBX 18 32 0 -8
BITMAP
000000
000000
000000
000000
000000
000000
000000
000000
000000
000000
0ff800
1ffc00
3c1e00
380e00
380e00
380e00
3ffe00
3ffe00
380000
380000
380000
3c0000
1ffe00
0ffe00
000000
000000
000000
000000
000000
000000
000000
000000
ENDCHAR
STARTCHAR f
ENCODING 133
SWIDTH 563 0
DWIDTH 18 0
BBX 18 32 0 -8
BITMAP
000000
000000
000000
000000
00fe00
01fe00
03c000
038000
038000
038000
3ff800
3ff800
038000
038000
038000
038000
038000
038000
038000
038000
038000
038000
038000
038000
000000
000000
000000
000000
000000
000000
000000
000000
ENDCHAR
STARTCHAR g
ENCODING 134
SWIDTH 563 0
DWIDTH 18 0
BBX 18 32 0 -8
BITMAP
000000
000000
000000
000000
000000
000000
000000
000000
000000
000000
03fe00
07ff00
0f0780
1e0380
3c0380
380380
380380
3c0380
1e0f80
0f1f80
07ff80
03fb80
000380
000380
0e0380
0f0780
07ff00
03fe00
000000
000000
000000
000000
ENDCHAR
STARTCHAR h
ENCODING 135
SWIDTH 563 0
DWIDTH 18 0
BBX 18 32 0 -8
BITMAP
000000
000000
000000
000000
380000
380000
380000
380000
380000
380000
3bf800
3ffc00
3f1e00
3e0e00
3c0e00
380e00
380e00
380e00
380e00
380e00
380e00
380e00
380e00
380e00
000000
000000
000000
000000
000000
000000
000000
000000
ENDCHAR
STARTCHAR i
ENCODING 136
SWIDTH 563 0
DWIDTH 18 0
BBX 18 32 0 -8
BITMAP
000000
000000
000000
000000
00e000
00e000
000000
000000
000000
000000
00e000
00e000
00e000
00e000
00e000
00e000
00e000
00e000
00e000
00e000
00e000
00e000
00e000
00e000
000000
000000
000000
000000
000000
000000
000000
000000
ENDCHAR
STARTCHAR j
ENCODING 137
SWIDTH 563 0
DWIDTH 18 0
BBX 18 32 0 -8
BITMAP
000000
000000
000000
000000
000e00
000e00
000000
000000
000000
000000
000e00
000e00
000e00
000e00
000e00
000e00
000e00
000e00
000e00
000e00
000e00
000e00
000e00
000e00
0e0e00
0f1e00
07fc00
03f800
000000
000000
000000
000000
ENDCHAR
STARTCHAR k
ENCODING 138
SWIDTH 563 0
DWIDTH 18 0
BBX 18 32 0 -8
BITMAP
000000
000000
000000
000000
0e0000
0e0000
0e0000
0e0000
0e0000
0e0000
0e0e00
0e1e00
0e3c00
0e7800
0ef000
0fe000
0fc000
0fc000
0fe000
0ef000
0e7800
0e3c00
0e1e00
0e0e00
000000
000000
000000
000000
000000
000000
000000
000000
ENDCHAR
STARTCHAR l
ENCODING 139
SWIDTH 563 0
DWIDTH 18 0
BBX 18 32 0 -8
BITMAP
000000
000000
000000
000000
00e000
00e000
00e000
00e000
00e000
00e000
00e000
00e000
00e000
00e000
00e000
00e000
00e000
00e000
00e000
00e000
00e000
00e000
00f800
00f800
000000
000000
000000
000000
000000
000000
000000
000000
ENDCHAR
STARTCHAR m
ENCODING 140
SWIDTH 563 0
DWIDTH 18 0
BBX 18 32 0 -8
BITMAP
000000
000000
000000
000000
000000
000000
000000
000000
000000
000000
0fbe00
1fff00
3df780
38e380
38e380
38e380
38e380
38e380
38e380
38e380
38e380
38e380
38e380
38e380
000000
000000
000000
000000
000000
000000
000000
000000
ENDCHAR
STARTCHAR n
ENCODING 141
SWIDTH 563 0
DWIDTH 18 0
BBX 18 32 0 -8
BITMAP
000000
000000
000000
000000
000000
000000
000000
000000
000000
000000
3bfe00
3fff00
0e0780
0e0380
0e0380
0e0380
0e0380
0e0380
0e0380
0e0380
0e0380
0e0380
0e0380
0e0380
000000
000000
000000
000000
000000
000000
000000
000000
ENDCHAR
STARTCHAR o
ENCODING 142
SWIDTH 563 0
DWIDTH 18 0
BBX 18 32 0 -8
BITMAP
000000
000000
000000
000000
000000
000000
000000
000000
000000
000000
0ff800
1ffc00
3c1e00
380e00
380e00
380e00
380e00
380e00
380e00
380e00
380e00
3c1e00
1ffc00
0ff800
000000
000000
000000
000000
000000
000000
000000
000000
ENDCHAR
STARTCHAR p
ENCODING 143
SWIDTH 563 0
DWIDTH 18 0
BBX 18 32 0 -8
BITMAP
000000
000000
000000
000000
000000
000000
000000
000000
000000
000000
3fe000
3ff000
387800
383c00
381e00
380e00
380e00
380e00
380e00
381e00
383c00
387800
3ff000
3fe000
380000
380000
380000
380000
380000
380000
000000
000000
ENDCHAR
STARTCHAR q
ENCODING 144
SWIDTH 563 0
DWIDTH 18 0
BBX 18 32 0 -8
BITMAP
000000
000000
000000
000000
000000
000000
000000
000000
000000
000000
03fe00
07fe00
0f0e00
1e0e00
3c0e00
380e00
380e00
3c0e00
1e0e00
0f0e00
07fe00
03fe00
000e00
000e00
000e00
000e00
000f80
000f80
000000
000000
000000
000000
ENDCHAR
STARTCHAR r
ENCODING 145
SWIDTH 563 0
DWIDTH 18 0
BBX 18 32 0 -8
BITMAP
000000
000000
000000
000000
000000
000000
000000
000000
000000
000000
3cfe00
3dff00
1fc780
0f8380
0f0000
0e0000
0e0000
0e0000
0e0000
0e0000
0e0000
0e0000
0e0000
0e0000
000000
000000
000000
000000
000000
000000
000000
000000
ENDCHAR
STARTCHAR s
ENCODING 146
SWIDTH 563 0
DWIDTH 18 0
BBX 18 32 0 -8
BITMAP
000000
000000
000000
000000
000000
000000
000000
000000
000000
000000
0ff800
1ffc00
3c1e00
3c0e00
1e0000
0f0000
07e000
03f000
007800
003c00
381e00
3c1e00
1ffc00
0ff800
000000
000000
000000
000000
000000
000000
000000
000000
ENDCHAR
STARTCHAR t
ENCODING 147
SWIDTH 563 0
DWIDTH 18 0
BBX 18 32 0 -8
BITMAP
000000
000000
000000
000000
00e000
00e000
00e000
00e000
00e000
00e000
0ffe00
0ffe00
00e000
00e000
00e000
00e000
00e000
00e000
00e000
00e000
00e000
00e000
00e000
00e000
000000
000000
000000
000000
000000
000000
000000
000000
ENDCHAR
STARTCHAR u
ENCODING 148
SWIDTH 563 0
DWIDTH 18 0
BBX 18 32 0 -8
BITMAP
000000
000000
000000
000000
000000
000000
000000
000000
000000
000000
380e00
380e00
380e00
380e00
380e00
380e00
380e00
380e00
380e00
380e00
380e00
3c1f00
1fff80
0ffb80
000000
000000
000000
000000
000000
000000
000000
000000
ENDCHAR
STARTCHAR v
ENCODING 149
SWIDTH 563 0
DWIDTH 18 0
BBX 18 32 0 -8
BITMAP
000000
000000
000000
000000
000000
000000
000000
000000
000000
000000
380380
380380
380380
3c0780
1e0f00
0e0e00
0e0e00
0f1e00
07bc00
03b800
03b800
03f800
01f000
00e000
000000
000000
000000
000000
000000
000000
000000
000000
ENDCHAR
STARTCHAR w
ENCODING 150
SWIDTH 563 0
DWIDTH 18 0
BBX 18 32 0 -8
BITMAP
000000
000000
000000
000000
000000
000000
000000
000000
000000
000000
380380
380380
380380
380380
380380
380380
38e380
38e380
38e380
39f380
3bfb80
3fbf80
1f1f00
0e0e00
000000
000000
000000
000000
000000
000000
000000
000000
ENDCHAR
STARTCHAR x
ENCODING 151
SWIDTH 563 0
DWIDTH 18 0
BBX 18 32 0 -8
BITMAP
000000
000000
000000
000000
000000
000000
000000
000000
000000
000000
380380
3c0780
1e0f00
0f1e00
07bc00
03f800
01f000
01f000
03f800
07bc00
0f1e00
1e0f00
3c0780
380380
000000
000000
000000
000000
000000
000000
000000
000000
ENDCHAR
STARTCHAR y
ENCODING 152
SWIDTH 563 0
DWIDTH 18 0
BBX 18 32 0 -8
BITMAP
000000
000000
000000
000000
000000
000000
000000
000000
000000
000000
380e00
380e00
380e00
380e00
380e00
380e00
380e00
3c0e00
1e0e00
0f1e00
07bc00
03f800
01f000
01e000
03c000
078000
0f0000
1e0000
3c0000
380000
000000
000000
ENDCHAR
STARTCHAR z
ENCODING 153
SWIDTH 563 0
DWIDTH 18 0
BBX 18 32 0 -8
BITMAP
000000
000000
000000
000000
000000
000000
000000
000000
000000
000000
3fff80
3fff80
000f00
001e00
003c00
007800
00f000
01e000
03c000
078000
0f0000
1e0000
3fff80
3fff80
000000
000000
000000
000000
000000
000000
000000
000000
ENDCHAR
STARTCHAR ae
ENCODING 154
SWIDTH 563 0
DWIDTH 18 0
BBX 18 32 0 -8
BITMAP
000000
000000
000000
000000
000000
000000
000000
000000
000000
000000
3fbe00
3fff00
01f780
00e380
03e380
07e380
0fff80
1eff80
3ce000
38e000
38e000
3df000
1fff80
0fbf80
000000
000000
000000
000000
000000
000000
000000
000000
ENDCHAR
STARTCHAR oslash
ENCODING 155
SWIDTH 563 0
DWIDTH 18 0
BBX 18 32 0 -8
BITMAP
000000
000000
000000
000000
000000
000000
000000
000000
000000
000000
03fb80
07ff80
0f1f00
0e1e00
0e3e00
0e7e00
0efe00
0fee00
0fce00
0f8e00
0f0e00
1f1e00
3ffc00
3bf800
000000
000000
000000
000000
000000
000000
000000
000000
ENDCHAR
STARTCHAR aring
ENCODING 156
SWIDTH 563 0
DWIDTH 18 0
BBX 18 32 0 -8
BITMAP
000000
000000
000000
000000
03f800
03f800
03f800
03f800
000000
000000
0ff800
0ffc00
001e00
000e00
000e00
000e00
0ffe00
1ffe00
3c0e00
380e00
380e00
3c0e00
1fff80
0fff80
000000
000000
000000
000000
000000
000000
000000
000000
ENDCHAR
STARTCHAR division
ENCODING 157
SWIDTH 563 0
DWIDTH 18 0
BBX 18 32 0 -8
BITMAP
000000
000000
000000
000000
000000
000000
000000
01f000
01f000
01f000
01f000
000000
000000
000000
3fff80
3fff80
000000
000000
000000
01f000
01f000
01f000
01f000
000000
000000
000000
000000
000000
000000
000000
000000
000000
ENDCHAR
STARTCHAR fm
ENCODING 158
SWIDTH 563 0
DWIDTH 18 0
BBX 18 32 0 -8
BITMAP
000000
000000
000000
000000
3fff80
3fff80
3fff80
3fff80
000000
000000
00f800
00f800
00f800
00f800
000000
000000
000000
000000
00f800
00f800
00f800
01f800
03f000
07e000
0fc000
0f8000
000000
000000
000000
000000
000000
000000
ENDCHAR
STARTCHAR dup
ENCODING 159
SWIDTH 563 0
DWIDTH 18 0
BBX 18 32 0 -8
BITMAP
000000
000000
000000
000000
3fff80
3fff80
3fff80
3fff80
000000
000000
00e000
00e000
38e380
3ce780
1eef00
0ffe00
07bc00
07bc00
0ffe00
1eef00
3ce780
38e380
00e000
00e000
000000
000000
000000
000000
000000
000000
000000
000000
ENDCHAR
STARTCHAR A
ENCODING 160
SWIDTH 563 0
DWIDTH 18 0
BBX 18 32 0 -8
BITMAP
000000
000000
000000
000000
000000
000000
00e000
01f000
03f800
07bc00
0f1e00
1e0f00
3c0780
380380
380380
380380
3fff80
3fff80
380380
380380
380380
380380
380380
380380
000000
000000
000000
000000
000000
000000
000000
000000
ENDCHAR
STARTCHAR B
ENCODING 161
SWIDTH 563 0
DWIDTH 18 0
BBX 18 32 0 -8
BITMAP
000000
000000
000000
000000
000000
000000
3ff800
3ffc00
0e1e00
0e0f00
0e0780
0e0780
0e0f00
0e1e00
0ffc00
0ffc00
0e1e00
0e0f00
0e0780
0e0780
0e0f00
0e1e00
3ffc00
3ff800
000000
000000
000000
000000
000000
000000
000000
000000
ENDCHAR
STARTCHAR C
ENCODING 162
SWIDTH 563 0
DWIDTH 18 0
BBX 18 32 0 -8
BITMAP
000000
000000
000000
000000
000000
000000
00fe00
01ff00
03c780
078380
0f0000
1e0000
3c0000
380000
380000
380000
380000
3c0000
1e0000
0f0000
078380
03c780
01ff00
00fe00
000000
000000
000000
000000
000000
000000
000000
000000
ENDCHAR
STARTCHAR D
ENCODING 163
SWIDTH 563 0
DWIDTH 18 0
BBX 18 32 0 -8
BITMAP
000000
000000
000000
000000
000000
000000
3ff800
3ffc00
0e1e00
0e0f00
0e0780
0e0380
0e0380
0e0380
0e0380
0e0380
0e0380
0e0380
0e0380
0e0780
0e0f00
0e1e00
3ffc00
3ff800
000000
000000
000000
000000
000000
000000
000000
000000
ENDCHAR
STARTCHAR E
ENCODING 164
SWIDTH 563 0
DWIDTH 18 0
BBX 18 32 0 -8
BITMAP
000000
000000
000000
000000
000000
000000
3fff80
3fff80
380000
380000
380000
380000
380000
380000
3ff800
3ff800
380000
380000
380000
380000
380000
380000
3fff80
3fff80
000000
000000
000000
000000
000000
000000
000000
000000
ENDCHAR
STARTCHAR F
ENCODING 165
SWIDTH 563 0
DWIDTH 18 0
BBX 18 32 0 -8
BITMAP
000000
000000
000000
000000
000000
000000
3fff80
3fff80
380000
380000
380000
380000
380000
380000
3ffe00
3ffe00
380000
380000
380000
380000
380000
380000
380000
380000
000000
000000
000000
000000
000000
000000
000000
000000
ENDCHAR
STARTCHAR G
ENCODING 166
SWIDTH 563 0
DWIDTH 18 0
BBX 18 32 0 -8
BITMAP
000000
000000
000000
000000
000000
000000
03f800
07fc00
0f1e00
1e0e00
3c0000
380000
380000
380000
380000
380000
38ff80
38ff80
380e00
3c0e00
1e0e00
0f0e00
07fe00
03fe00
000000
000000
000000
000000
000000
000000
000000
000000
ENDCHAR
STARTCHAR H
ENCODING 167
SWIDTH 563 0
DWIDTH 18 0
BBX 18 32 0 -8
BITMAP
000000
000000
000000
000000
000000
000000
380380
380380
380380
380380
380380
380380
380380
380380
3fff80
3fff80
380380
380380
380380
380380
380380
380380
380380
380380
000000
000000
000000
000000
000000
000000
000000
000000
ENDCHAR
STARTCHAR I
ENCODING 168
SWIDTH 563 0
DWIDTH 18 0
BBX 18 32 0 -8
BITMAP
000000
000000
000000
000000
000000
000000
03f800
03f800
00e000
00e000
00e000
00e000
00e000
00e000
00e000
00e000
00e000
00e000
00e000
00e000
00e000
00e000
03f800
03f800
000000
000000
000000
000000
000000
000000
000000
000000
ENDCHAR
STARTCHAR J
ENCODING 169
SWIDTH 563 0
DWIDTH 18 0
BBX 18 32 0 -8
BITMAP
000000
000000
000000
000000
000000
000000
00fe00
00fe00
003800
003800
003800
003800
003800
003800
003800
003800
003800
003800
383800
383800
383800
3c7800
1ff000
0fe000
000000
000000
000000
000000
000000
000000
000000
000000
ENDCHAR
STARTCHAR K
ENCODING 170
SWIDTH 563 0
DWIDTH 18 0
BBX 18 32 0 -8
BITMAP
000000
000000
000000
000000
000000
000000
380380
380780
380f00
381e00
383c00
387800
38f000
39e000
3bc000
3fc000
3fe000
3ef000
3c7800
383c00
381e00
380f00
380780
380380
000000
000000
000000
000000
000000
000000
000000
000000
ENDCHAR
STARTCHAR L
ENCODING 171
SWIDTH 563 0
DWIDTH 18 0
BBX 18 32 0 -8
BITMAP
000000
000000
000000
000000
000000
000000
380000
380000
380000
380000
380000
380000
380000
380000
380000
380000
380000
380000
380000
380000
380000
380000
3fff80
3fff80
000000
000000
000000
000000
000000
000000
000000
000000
ENDCHAR
STARTCHAR M
ENCODING 172
SWIDTH 563 0
DWIDTH 18 0
BBX 18 32 0 -8
BITMAP
000000
000000
000000
000000
000000
000000
380380
3c0780
3e0f80
3f1f80
3fbf80
3bfb80
39f380
38e380
38e380
38e380
380380
380380
380380
380380
380380
380380
380380
380380
000000
000000
000000
000000
000000
000000
000000
000000
ENDCHAR
STARTCHAR N
ENCODING 173
SWIDTH 563 0
DWIDTH 18 0
BBX 18 32 0 -8
BITMAP
000000
000000
000000
000000
000000
000000
380380
3c0380
3e0380
3f0380
3f8380
3bc380
39e380
38f380
387b80
383f80
381f80
380f80
380780
380380
380380
380380
380380
380380
000000
000000
000000
000000
000000
000000
000000
000000
ENDCHAR
STARTCHAR O
ENCODING 174
SWIDTH 563 0
DWIDTH 18 0
BBX 18 32 0 -8
BITMAP
000000
000000
000000
000000
000000
000000
0ffe00
1fff00
3c0780
380380
380380
380380
380380
380380
380380
380380
380380
380380
380380
380380
380380
3c0780
1fff00
0ffe00
000000
000000
000000
000000
000000
000000
000000
000000
ENDCHAR
STARTCHAR P
ENCODING 175
SWIDTH 563 0
DWIDTH 18 0
BBX 18 32 0 -8
BITMAP
000000
000000
000000
000000
000000
000000
3ff800
3ffc00
381e00
380f00
380780
380380
380380
380780
380f00
381e00
3ffc00
3ff800
380000
380000
380000
380000
380000
380000
000000
000000
000000
000000
000000
000000
000000
000000
ENDCHAR
STARTCHAR Q
ENCODING 176
SWIDTH 563 0
DWIDTH 18 0
BBX 18 32 0 -8
BITMAP
000000
000000
000000
000000
000000
000000
03f800
07fc00
0f1e00
1e0f00
3c0780
380380
380380
380380
380380
380380
380380
380380
38e380
3ce780
1eef00
0f7e00
07fc00
03fc00
001e00
000f00
000780
000380
000000
000000
000000
000000
ENDCHAR
STARTCHAR R
ENCODING 177
SWIDTH 563 0
DWIDTH 18 0
BBX 18 32 0 -8
BITMAP
000000
000000
000000
000000
000000
000000
3ffe00
3fff00
380780
380380
380380
380380
380380
380780
3fff00
3ffe00
39e000
38f000
387800
383c00
381e00
380f00
380780
380380
000000
000000
000000
000000
000000
000000
000000
000000
ENDCHAR
STARTCHAR S
ENCODING 178
SWIDTH 563 0
DWIDTH 18 0
BBX 18 32 0 -8
BITMAP
000000
000000
000000
000000
000000
000000
0ffe00
1fff00
3c0780
380380
380000
3c0000
1f8000
0fc000
01e000
00f000
007e00
003f00
000780
000380
380380
3c0780
1fff00
0ffe00
000000
000000
000000
000000
000000
000000
000000
000000
ENDCHAR
STARTCHAR T
ENCODING 179
SWIDTH 563 0
DWIDTH 18 0
BBX 18 32 0 -8
BITMAP
000000
000000
000000
000000
000000
000000
3fff80
3fff80
00e000
00e000
00e000
00e000
00e000
00e000
00e000
00e000
00e000
00e000
00e000
00e000
00e000
00e000
00e000
00e000
000000
000000
000000
000000
000000
000000
000000
000000
ENDCHAR
STARTCHAR U
ENCODING 180
SWIDTH 563 0
DWIDTH 18 0
BBX 18 32 0 -8
BITMAP
000000
000000
000000
000000
000000
000000
380380
380380
380380
380380
380380
380380
380380
380380
380380
380380
380380
380380
380380
380380
380380
3c0780
1fff00
0ffe00
000000
000000
000000
000000
000000
000000
000000
000000
ENDCHAR
STARTCHAR V
ENCODING 181
SWIDTH 563 0
DWIDTH 18 0
BBX 18 32 0 -8
BITMAP
000000
000000
000000
000000
000000
000000
380380
380380
380380
3c0780
1e0f00
0e0e00
0e0e00
0e0e00
0e0e00
0f1e00
07bc00
03b800
03b800
03f800
01f000
00e000
00e000
00e000
000000
000000
000000
000000
000000
000000
000000
000000
ENDCHAR
STARTCHAR W
ENCODING 182
SWIDTH 563 0
DWIDTH 18 0
BBX 18 32 0 -8
BITMAP
000000
000000
000000
000000
000000
000000
380380
380380
380380
380380
380380
380380
380380
380380
38e380
38e380
38e380
38e380
38e380
39f380
3bfb80
3fbf80
1f1f00
0e0e00
000000
000000
000000
000000
000000
000000
000000
000000
ENDCHAR
STARTCHAR X
ENCODING 183
SWIDTH 563 0
DWIDTH 18 0
BBX 18 32 0 -8
BITMAP
000000
000000
000000
000000
000000
000000
380380
380380
380380
3c0780
1e0f00
0f1e00
07bc00
03f800
01f000
01f000
03f800
07bc00
0f1e00
1e0f00
3c0780
380380
380380
380380
000000
000000
000000
000000
000000
000000
000000
000000
ENDCHAR
STARTCHAR Y
ENCODING 184
SWIDTH 563 0
DWIDTH 18 0
BBX 18 32 0 -8
BITMAP
000000
000000
000000
000000
000000
000000
380380
3c0780
1e0f00
0f1e00
07bc00
03f800
01f000
00e000
00e000
00e000
00e000
00e000
00e000
00e000
00e000
00e000
00e000
00e000
000000
000000
000000
000000
000000
000000
000000
000000
ENDCHAR
STARTCHAR Z
ENCODING 185
SWIDTH 563 0
DWIDTH 18 0
BBX 18 32 0 -8
BITMAP
000000
000000
000000
000000
000000
000000
3fff80
3fff80
000380
000780
000f00
001e00
003c00
007800
00f000
01e000
03c000
078000
0f0000
1e0000
3c0000
380000
3fff80
3fff80
000000
000000
000000
000000
000000
000000
000000
000000
ENDCHAR
STARTCHAR AE
ENCODING 186
SWIDTH 563 0
DWIDTH 18 0
BBX 18 32 0 -8
BITMAP
000000
000000
000000
000000
000000
000000
00ff80
01ff80
03f800
07b800
0f3800
1e3800
3c3800
383800
383f80
383f80
3ff800
3ff800
383800
383800
383800
383800
383f80
383f80
000000
000000
000000
000000
000000
000000
000000
000000
ENDCHAR
STARTCHAR Ooblique
ENCODING 187
SWIDTH 563 0
DWIDTH 18 0
BBX 18 32 0 -8
BITMAP
000000
000000
000000
000000
000000
000000
0ffe00
1fff00
3c0780
380780
380f80
381f80
383f80
387b80
38f380
39e380
3bc380
3f8380
3f0380
3e0380
3c0380
3c0780
1fff00
0ffe00
000000
000000
000000
000000
000000
000000
000000
000000
ENDCHAR
STARTCHAR Aring
ENCODING 188
SWIDTH 563 0
DWIDTH 18 0
BBX 18 32 0 -8
BITMAP
000000
000000
03f800
03f800
03f800
03f800
00e000
01f000
03f800
07bc00
0f1e00
1e0f00
3c0780
380380
380380
380380
3fff80
3fff80
380380
380380
380380
380380
380380
380380
000000
000000
000000
000000
000000
000000
000000
000000
ENDCHAR
STARTCHAR Ccedilla
ENCODING 189
SWIDTH 563 0
DWIDTH 18 0
BBX 18 32 0 -8
BITMAP
000000
000000
000000
000000
000000
000000
00fe00
01ff00
03c780
078380
0f0000
1e0000
3c0000
380000
380000
380000
380000
3c0000
1e0000
0f0000
078380
03c780
01ff00
00fe00
003c00
003800
0ff800
0ff000
000000
000000
000000
000000
ENDCHAR
STARTCHAR semicolon
ENCODING 190
SWIDTH 563 0
DWIDTH 18 0
BBX 18 32 0 -8
BITMAP
000000
000000
000000
000000
000000
000000
000000
000000
000000
000000
000000
000000
00f800
00f800
00f800
00f800
000000
000000
000000
000000
00f800
00f800
00f800
01f800
03f000
07e000
0fc000
0f8000
000000
000000
000000
000000
ENDCHAR
STARTCHAR asterisk
ENCODING 191
SWIDTH 563 0
DWIDTH 18 0
BBX 18 32 0 -8
BITMAP
000000
000000
000000
000000
000000
000000
00e000
00e000
38e380
3ce780
1eef00
0ffe00
07bc00
07bc00
0ffe00
1eef00
3ce780
38e380
00e000
00e000
000000
000000
000000
000000
000000
000000
000000
000000
000000
000000
000000
000000
ENDCHAR
STARTCHAR c0
ENCODING 192
SWIDTH 563 0
DWIDTH 18 0
BBX 18 32 0 -8
BITMAP
000000
000000
000000
000000
000000
000000
000000
000000
000000
000000
000000
000000
000000
000000
000000
000000
000000
000000
000000
000000
000000
000000
000000
000000
000000
000000
000000
000000
000000
000000
000000
000000
ENDCHAR
STARTCHAR c1
ENCODING 193
SWIDTH 563 0
DWIDTH 18 0
BBX 18 32 0 -8
BITMAP
000000
000000
000000
000000
000000
000000
000000
000000
000000
000000
000000
000000
000000
000000
000000
000000
000000
000000
000000
000000
000000
000000
000000
000000
000000
000000
000000
000000
000000
000000
000000
000000
ENDCHAR
STARTCHAR c2
ENCODING 194
SWIDTH 563 0
DWIDTH 18 0
BBX 18 32 0 -8
BITMAP
000000
000000
000000
000000
000000
000000
000000
000000
000000
000000
000000
000000
000000
000000
000000
000000
000000
000000
000000
000000
000000
000000
000000
000000
000000
000000
000000
000000
000000
000000
000000
000000
ENDCHAR
STARTCHAR c3
ENCODING 195
SWIDTH 563 0
DWIDTH 18 0
BBX 18 32 0 -8
BITMAP
000000
000000
000000
000000
000000
000000
000000
000000
000000
000000
000000
000000
000000
000000
000000
000000
000000
000000
000000
000000
000000
000000
000000
000000
000000
000000
000000
000000
000000
000000
000000
000000
ENDCHAR
STARTCHAR c4
ENCODING 196
SWIDTH 563 0
DWIDTH 18 0
BBX 18 32 0 -8
BITMAP
000000
000000
000000
000000
000000
000000
000000
000000
000000
000000
000000
000000
000000
000000
000000
000000
000000
000000
000000
000000
000000
000000
000000
000000
000000
000000
000000
000000
000000
000000
000000
000000
ENDCHAR
STARTCHAR c5
ENCODING 197
SWIDTH 563 0
DWIDTH 18 0
BBX 18 32 0 -8
BITMAP
000000
000000
000000
000000
000000
000000
000000
000000
000000
000000
000000
000000
000000
000000
000000
000000
000000
000000
000000
000000
000000
000000
000000
000000
000000
000000
000000
000000
000000
000000
000000
000000
ENDCHAR
STARTCHAR c6
ENCODING 198
SWIDTH 563 0
DWIDTH 18 0
BBX 18 32 0 -8
BITMAP
000000
000000
000000
000000
000000
000000
000000
000000
000000
000000
000000
000000
000000
000000
000000
000000
000000
000000
000000
000000
000000
000000
000000
000000
000000
000000
000000
000000
000000
000000
000000
000000
ENDCHAR
STARTCHAR c7
ENCODING 199
SWIDTH 563 0
DWIDTH 18 0
BBX 18 32 0 -8
BITMAP
000000
000000
000000
000000
000000
000000
000000
000000
000000
000000
000000
000000
000000
000000
000000
000000
000000
000000
000000
000000
000000
000000
000000
000000
000000
000000
000000
000000
000000
000000
000000
000000
ENDCHAR
STARTCHAR c8
ENCODING 200
SWIDTH 563 0
DWIDTH 18 0
BBX 18 32 0 -8
BITMAP
000000
000000
000000
000000
000000
000000
000000
000000
000000
000000
000000
000000
000000
000000
000000
000000
000000
000000
000000
000000
000000
000000
000000
000000
000000
000000
000000
000000
000000
000000
000000
000000
ENDCHAR
STARTCHAR c9
ENCODING 201
SWIDTH 563 0
DWIDTH 18 0
BBX 18 32 0 -8
BITMAP
000000
000000
000000
000000
000000
000000
000000
000000
000000
000000
000000
000000
000000
000000
000000
000000
000000
000000
000000
000000
000000
000000
000000
000000
000000
000000
000000
000000
000000
000000
000000
000000
ENDCHAR
STARTCHAR ca
ENCODING 202
SWIDTH 563 0
DWIDTH 18 0
BBX 18 32 0 -8
BITMAP
000000
000000
000000
000000
000000
000000
000000
000000
000000
000000
000000
000000
000000
000000
000000
000000
000000
000000
000000
000000
000000
000000
000000
000000
000000
000000
000000
000000
000000
000000
000000
000000
ENDCHAR
STARTCHAR cb
ENCODING 203
SWIDTH 563 0
DWIDTH 18 0
BBX 18 32 0 -8
BITMAP
000000
000000
000000
000000
000000
000000
000000
000000
000000
000000
000000
000000
000000
000000
000000
000000
000000
000000
000000
000000
000000
000000
000000
000000
000000
000000
000000
000000
000000
000000
000000
000000
ENDCHAR
STARTCHAR cc
ENCODING 204
SWIDTH 563 0
DWIDTH 18 0
BBX 18 32 0 -8
BITMAP
000000
000000
000000
000000
000000
000000
000000
000000
000000
000000
000000
000000
000000
000000
000000
000000
000000
000000
000000
000000
000000
000000
000000
000000
000000
000000
000000
000000
000000
000000
000000
000000
ENDCHAR
STARTCHAR cd
ENCODING 205
SWIDTH 563 0
DWIDTH 18 0
BBX 18 32 0 -8
BITMAP
000000
000000
000000
000000
000000
000000
000000
000000
000000
000000
000000
000000
000000
000000
000000
000000
000000
000000
000000
000000
000000
000000
000000
000000
000000
000000
000000
000000
000000
000000
000000
000000
ENDCHAR
STARTCHAR ce
ENCODING 206
SWIDTH 563 0
DWIDTH 18 0
BBX 18 32 0 -8
BITMAP
000000
000000
000000
000000
000000
000000
000000
000000
000000
000000
000000
000000
000000
000000
000000
000000
000000
000000
000000
000000
000000
000000
000000
000000
000000
000000
000000
000000
000000
000000
000000
000000
ENDCHAR
STARTCHAR cf
ENCODING 207
SWIDTH 563 0
DWIDTH 18 0
BBX 18 32 0 -8
BITMAP
000000
000000
000000
000000
000000
000000
000000
000000
000000
000000
000000
000000
000000
000000
000000
000000
000000
000000
000000
000000
000000
000000
000000
000000
000000
000000
000000
000000
000000
000000
000000
000000
ENDCHAR
STARTCHAR copyright
ENCODING 208
SWIDTH 563 0
DWIDTH 18 0
BBX 18 32 0 -8
BITMAP
000000
000000
000000
000000
000000
000000
07f800
0ffc00
1c0e00
380700
30f300
31f300
338300
330300
330300
330300
330300
338300
31f300
30f300
380700
1c0e00
0ffc00
07f800
000000
000000
000000
000000
000000
000000
000000
000000
ENDCHAR
STARTCHAR registered
ENCODING 209
SWIDTH 563 0
DWIDTH 18 0
BBX 18 32 0 -8
BITMAP
000000
000000
000000
000000
000000
000000
07f800
0ffc00
1c0e00
380700
33e300
33f300
333300
333300
33f300
33e300
336300
337300
333300
333300
380700
1c0e00
0ffc00
07f800
000000
000000
000000
000000
000000
000000
000000
000000
ENDCHAR
STARTCHAR boxA
ENCODING 210
SWIDTH 563 0
DWIDTH 18 0
BBX 18 32 0 -8
BITMAP
000000
000000
0c0000
1e0000
3f0000
738000
e1c000
c0c000
c0c000
c0c000
ffc000
ffc000
c0c000
c0c000
c0c000
c0c000
000000
000000
ffffc0
ffffc0
c000c0
c000c0
c000c0
c000c0
ffffc0
ffffc0
000000
000000
000000
000000
000000
000000
ENDCHAR
STARTCHAR insert
ENCODING 211
SWIDTH 563 0
DWIDTH 18 0
BBX 18 32 0 -8
BITMAP
000000
000000
000000
000000
000000
000000
000000
000000
000000
000000
00c000
01e000
03f000
07f800
0ffc00
1ffe00
3fff00
7f3f80
fe1fc0
fc0fc0
f807c0
f003c0
e001c0
c000c0
800040
000000
000000
000000
000000
000000
000000
000000
ENDCHAR
STARTCHAR boxB
ENCODING 212
SWIDTH 563 0
DWIDTH 18 0
BBX 18 32 0 -8
BITMAP
000000
000000
00ff00
00ff80
0031c0
0030c0
0030c0
0031c0
003f80
003f80
0031c0
0030c0
0030c0
0031c0
00ff80
00ff00
000000
000000
ffffc0
ffffc0
c000c0
c000c0
c000c0
c000c0
ffffc0
ffffc0
000000
000000
000000
000000
000000
000000
ENDCHAR
STARTCHAR box6
ENCODING 213
SWIDTH 563 0
DWIDTH 18 0
BBX 18 32 0 -8
BITMAP
000000
000000
000000
000000
000000
000000
ffffc0
ffffc0
c000c0
c000c0
c300c0
c700c0
ce00c0
cc00c0
cc00c0
cc00c0
ccf0c0
cdf8c0
cf9cc0
cf0cc0
cc0cc0
ce1cc0
c7f8c0
c3f0c0
c000c0
c000c0
ffffc0
ffffc0
000000
000000
000000
000000
ENDCHAR
STARTCHAR plusminus
ENCODING 214
SWIDTH 563 0
DWIDTH 18 0
BBX 18 32 0 -8
BITMAP
000000
000000
000000
000000
00e000
00e000
00e000
00e000
00e000
00e000
3fff80
3fff80
00e000
00e000
00e000
00e000
00e000
00e000
000000
000000
3fff80
3fff80
000000
000000
000000
000000
000000
000000
000000
000000
000000
000000
ENDCHAR
STARTCHAR ETH
ENCODING 215
SWIDTH 563 0
DWIDTH 18 0
BBX 18 32 0 -8
BITMAP
000000
000000
000000
000000
000000
000000
3ff800
3ffc00
0e1e00
0e0f00
0e0780
0e0380
0e0380
0e0380
3fe380
3fe380
0e0380
0e0380
0e0380
0e0780
0e0f00
0e1e00
3ffc00
3ff800
000000
000000
000000
000000
000000
000000
000000
000000
ENDCHAR
STARTCHAR rightarrow
ENCODING 216
SWIDTH 563 0
DWIDTH 18 0
BBX 18 32 0 -8
BITMAP
000000
000000
000000
000000
000000
000000
000000
000000
000000
000000
003000
003800
003c00
003e00
ffff00
ffff00
003e00
003c00
003800
003000
000000
000000
000000
000000
000000
000000
000000
000000
000000
000000
000000
000000
ENDCHAR
STARTCHAR THORN
ENCODING 217
SWIDTH 563 0
DWIDTH 18 0
BBX 18 32 0 -8
BITMAP
000000
000000
000000
000000
000000
000000
380000
380000
380000
3ff800
3ffc00
381e00
380f00
380780
380380
380380
380780
380f00
381e00
3ffc00
3ff800
380000
380000
380000
000000
000000
000000
000000
000000
000000
000000
000000
ENDCHAR
STARTCHAR upshift
ENCODING 218
SWIDTH 563 0
DWIDTH 18 0
BBX 18 32 0 -8
BITMAP
000000
000000
000000
000000
00c000
01e000
03f000
073800
0e1c00
1c0e00
380700
300300
3f3f00
3f3f00
033000
033000
033000
033000
033000
033000
033000
033000
033000
033000
03f000
03f000
000000
000000
000000
000000
000000
000000
ENDCHAR
STARTCHAR human
ENCODING 219
SWIDTH 563 0
DWIDTH 18 0
BBX 18 32 0 -8
BITMAP
000000
000000
000000
000000
03f000
03f000
033000
033000
03f000
03f000
00c000
00c000
3fff00
3fff00
00c000
00c000
00c000
01e000
03f000
073800
0e1c00
1c0e00
380700
300300
000000
000000
000000
000000
000000
000000
000000
000000
ENDCHAR
STARTCHAR underB
ENCODING 220
SWIDTH 563 0
DWIDTH 18 0
BBX 18 32 0 -8
BITMAP
000000
000000
0ff000
0ff800
031c00
030c00
030c00
031c00
03f800
03f800
031c00
030c00
030c00
031c00
0ff800
0ff000
000000
000000
ffffc0
ffffc0
000000
000000
000000
000000
000000
000000
000000
000000
000000
000000
000000
000000
ENDCHAR
STARTCHAR downshift
ENCODING 221
SWIDTH 563 0
DWIDTH 18 0
BBX 18 32 0 -8
BITMAP
000000
000000
000000
000000
03f000
03f000
033000
033000
033000
033000
033000
033000
033000
033000
033000
033000
3f3f00
3f3f00
300300
380700
1c0e00
0e1c00
073800
03f000
01e000
00c000
000000
000000
000000
000000
000000
000000
ENDCHAR
STARTCHAR boxquestion
ENCODING 222
SWIDTH 563 0
DWIDTH 18 0
BBX 18 32 0 -8
BITMAP
000000
000000
ffffc0
ffffc0
c000c0
c000c0
c3f0c0
c7f8c0
ce1cc0
cc0cc0
cc0cc0
cc0cc0
c00cc0
c01cc0
c038c0
c070c0
c0e0c0
c0c0c0
c0c0c0
c0c0c0
c000c0
c000c0
c0c0c0
c0c0c0
c000c0
c000c0
ffffc0
ffffc0
000000
000000
000000
000000
ENDCHAR
STARTCHAR boxsolid
ENCODING 223
SWIDTH 563 0
DWIDTH 18 0
BBX 18 32 0 -8
BITMAP
000000
000000
ffffc0
ffffc0
ffffc0
ffffc0
ffffc0
ffffc0
ffffc0
ffffc0
ffffc0
ffffc0
ffffc0
ffffc0
ffffc0
ffffc0
ffffc0
ffffc0
ffffc0
ffffc0
ffffc0
ffffc0
ffffc0
ffffc0
ffffc0
ffffc0
ffffc0
ffffc0
000000
000000
000000
000000
ENDCHAR
STARTCHAR e0
ENCODING 224
SWIDTH 563 0
DWIDTH 18 0
BBX 18 32 0 -8
BITMAP
000000
000000
000000
000000
000000
000000
000000
000000
000000
000000
000000
000000
000000
000000
000000
000000
000000
000000
000000
000000
000000
000000
000000
000000
000000
000000
000000
000000
000000
000000
000000
000000
ENDCHAR
STARTCHAR e1
ENCODING 225
SWIDTH 563 0
DWIDTH 18 0
BBX 18 32 0 -8
BITMAP
000000
000000
000000
000000
000000
000000
000000
000000
000000
000000
000000
000000
000000
000000
000000
000000
000000
000000
000000
000000
000000
000000
000000
000000
000000
000000
000000
000000
000000
000000
000000
000000
ENDCHAR
STARTCHAR e2
ENCODING 226
SWIDTH 563 0
DWIDTH 18 0
BBX 18 32 0 -8
BITMAP
000000
000000
000000
000000
000000
000000
000000
000000
000000
000000
000000
000000
000000
000000
000000
000000
000000
000000
000000
000000
000000
000000
000000
000000
000000
000000
000000
000000
000000
000000
000000
000000
ENDCHAR
STARTCHAR e3
ENCODING 227
SWIDTH 563 0
DWIDTH 18 0
BBX 18 32 0 -8
BITMAP
000000
000000
000000
000000
000000
000000
000000
000000
000000
000000
000000
000000
000000
000000
000000
000000
000000
000000
000000
000000
000000
000000
000000
000000
000000
000000
000000
000000
000000
000000
000000
000000
ENDCHAR
STARTCHAR e4
ENCODING 228
SWIDTH 563 0
DWIDTH 18 0
BBX 18 32 0 -8
BITMAP
000000
000000
000000
000000
000000
000000
000000
000000
000000
000000
000000
000000
000000
000000
000000
000000
000000
000000
000000
000000
000000
000000
000000
000000
000000
000000
000000
000000
000000
000000
000000
000000
ENDCHAR
STARTCHAR e5
ENCODING 229
SWIDTH 563 0
DWIDTH 18 0
BBX 18 32 0 -8
BITMAP
000000
000000
000000
000000
000000
000000
000000
000000
000000
000000
000000
000000
000000
000000
000000
000000
000000
000000
000000
000000
000000
000000
000000
000000
000000
000000
000000
000000
000000
000000
000000
000000
ENDCHAR
STARTCHAR e6
ENCODING 230
SWIDTH 563 0
DWIDTH 18 0
BBX 18 32 0 -8
BITMAP
000000
000000
000000
000000
000000
000000
000000
000000
000000
000000
000000
000000
000000
000000
000000
000000
000000
000000
000000
000000
000000
000000
000000
000000
000000
000000
000000
000000
000000
000000
000000
000000
ENDCHAR
STARTCHAR e7
ENCODING 231
SWIDTH 563 0
DWIDTH 18 0
BBX 18 32 0 -8
BITMAP
000000
000000
000000
000000
000000
000000
000000
000000
000000
000000
000000
000000
000000
000000
000000
000000
000000
000000
000000
000000
000000
000000
000000
000000
000000
000000
000000
000000
000000
000000
000000
000000
ENDCHAR
STARTCHAR e8
ENCODING 232
SWIDTH 563 0
DWIDTH 18 0
BBX 18 32 0 -8
BITMAP
000000
000000
000000
000000
000000
000000
000000
000000
000000
000000
000000
000000
000000
000000
000000
000000
000000
000000
000000
000000
000000
000000
000000
000000
000000
000000
000000
000000
000000
000000
000000
000000
ENDCHAR
STARTCHAR e9
ENCODING 233
SWIDTH 563 0
DWIDTH 18 0
BBX 18 32 0 -8
BITMAP
000000
000000
000000
000000
000000
000000
000000
000000
000000
000000
000000
000000
000000
000000
000000
000000
000000
000000
000000
000000
000000
000000
000000
000000
000000
000000
000000
000000
000000
000000
000000
000000
ENDCHAR
STARTCHAR ea
ENCODING 234
SWIDTH 563 0
DWIDTH 18 0
BBX 18 32 0 -8
BITMAP
000000
000000
000000
000000
000000
000000
000000
000000
000000
000000
000000
000000
000000
000000
000000
000000
000000
000000
000000
000000
000000
000000
000000
000000
000000
000000
000000
000000
000000
000000
000000
000000
ENDCHAR
STARTCHAR eb
ENCODING 235
SWIDTH 563 0
DWIDTH 18 0
BBX 18 32 0 -8
BITMAP
000000
000000
000000
000000
000000
000000
000000
000000
000000
000000
000000
000000
000000
000000
000000
000000
000000
000000
000000
000000
000000
000000
000000
000000
000000
000000
000000
000000
000000
000000
000000
000000
ENDCHAR
STARTCHAR ec
ENCODING 236
SWIDTH 563 0
DWIDTH 18 0
BBX 18 32 0 -8
BITMAP
000000
000000
000000
000000
000000
000000
000000
000000
000000
000000
000000
000000
000000
000000
000000
000000
000000
000000
000000
000000
000000
000000
000000
000000
000000
000000
000000
000000
000000
000000
000000
000000
ENDCHAR
STARTCHAR ed
ENCODING 237
SWIDTH 563 0
DWIDTH 18 0
BBX 18 32 0 -8
BITMAP
000000
000000
000000
000000
000000
000000
000000
000000
000000
000000
000000
000000
000000
000000
000000
000000
000000
000000
000000
000000
000000
000000
000000
000000
000000
000000
000000
000000
000000
000000
000000
000000
ENDCHAR
STARTCHAR ee
ENCODING 238
SWIDTH 563 0
DWIDTH 18 0
BBX 18 32 0 -8
BITMAP
000000
000000
000000
000000
000000
000000
000000
000000
000000
000000
000000
000000
000000
000000
000000
000000
000000
000000
000000
000000
000000
000000
000000
000000
000000
000000
000000
000000
000000
000000
000000
000000
ENDCHAR
STARTCHAR ef
ENCODING 239
SWIDTH 563 0
DWIDTH 18 0
BBX 18 32 0 -8
BITMAP
000000
000000
000000
000000
000000
000000
000000
000000
000000
000000
000000
000000
000000
000000
000000
000000
000000
000000
000000
000000
000000
000000
000000
000000
000000
000000
000000
000000
000000
000000
000000
000000
ENDCHAR
STARTCHAR badcommhi
ENCODING 240
SWIDTH 563 0
DWIDTH 18 0
BBX 18 32 0 -8
BITMAP
000000
000000
000000
800000
c00000
e00000
f00000
f80000
fc0000
fe0000
7f0000
3f8000
1fc000
0fe000
ffffc0
ffffc0
01fc00
00fe00
007f00
003f80
001fc0
000fc0
0007c0
0003c0
0001c0
0000c0
000040
000000
000000
000000
000000
000000
ENDCHAR
STARTCHAR commhi
ENCODING 241
SWIDTH 563 0
DWIDTH 18 0
BBX 18 32 0 -8
BITMAP
000000
000000
000000
000000
000000
000000
000000
000000
000000
000000
000000
000000
000000
000000
ffffc0
ffffc0
000000
000000
000000
000000
000000
000000
000000
000000
000000
000000
000000
000000
000000
000000
000000
000000
ENDCHAR
STARTCHAR commjag
ENCODING 242
SWIDTH 563 0
DWIDTH 18 0
BBX 18 32 0 -8
BITMAP
000000
000000
000000
000000
000000
000000
000000
000000
000000
000000
000000
000000
000000
000000
fff000
fff000
00e000
01c000
038000
070000
0e0000
1c0000
3fffc0
3fffc0
000000
000000
000000
000000
000000
000000
000000
000000
ENDCHAR
STARTCHAR commlo
ENCODING 243
SWIDTH 563 0
DWIDTH 18 0
BBX 18 32 0 -8
BITMAP
000000
000000
000000
000000
000000
000000
000000
000000
000000
000000
000000
000000
000000
000000
000000
000000
000000
000000
000000
000000
000000
000000
ffffc0
ffffc0
000000
000000
000000
000000
000000
000000
000000
000000
ENDCHAR
STARTCHAR clockleft
ENCODING 244
SWIDTH 563 0
DWIDTH 18 0
BBX 18 32 0 -8
BITMAP
000000
000000
000000
000000
000300
000300
00c000
00c000
000000
000000
0c0000
0c0000
000000
000040
0000c0
0001c0
300380
300300
000300
000300
000300
000300
0c0300
0c0300
000300
000300
00c000
00c000
000300
000300
000000
000000
ENDCHAR
STARTCHAR clockright
ENCODING 245
SWIDTH 563 0
DWIDTH 18 0
BBX 18 32 0 -8
BITMAP
000000
000000
000000
000000
0c0000
0c0000
000000
000000
0cc000
1cc000
380000
700000
e00000
c00000
803000
003000
000000
000000
000000
000000
00c000
00c000
000000
000000
0c0000
0c0000
000000
000000
000000
000000
000000
000000
ENDCHAR
STARTCHAR lock
ENCODING 246
SWIDTH 563 0
DWIDTH 18 0
BBX 18 32 0 -8
BITMAP
000000
800040
c000c0
e001c0
f003c0
f807c0
fc0fc0
fe1fc0
ff3fc0
ffffc0
7fff80
3fff00
1ffe00
0ffc00
0ffc00
1ffe00
3fff00
7fff80
ffffc0
ff3fc0
fe1fc0
fc0fc0
f807c0
f003c0
e001c0
c000c0
800040
000000
000000
000000
000000
000000
ENDCHAR
STARTCHAR eth
ENCODING 247
SWIDTH 563 0
DWIDTH 18 0
BBX 18 32 0 -8
BITMAP
000000
000000
039c00
03fc00
01f800
00f000
01f800
03fc00
039e00
000e00
03fe00
07fe00
0f0e00
1e0e00
3c0e00
380e00
380e00
380e00
380e00
3c0e00
1e1e00
0f3c00
07f800
03f000
000000
000000
000000
000000
000000
000000
000000
000000
ENDCHAR
STARTCHAR leftarrow
ENCODING 248
SWIDTH 563 0
DWIDTH 18 0
BBX 18 32 0 -8
BITMAP
000000
000000
000000
000000
000000
000000
000000
000000
000000
000000
030000
070000
0f0000
1f0000
3fffc0
3fffc0
1f0000
0f0000
070000
030000
000000
000000
000000
000000
000000
000000
000000
000000
000000
000000
000000
000000
ENDCHAR
STARTCHAR thorn
ENCODING 249
SWIDTH 563 0
DWIDTH 18 0
BBX 18 32 0 -8
BITMAP
000000
000000
000000
000000
380000
380000
380000
380000
380000
380000
3fe000
3ff000
387800
383c00
381e00
380e00
380e00
380e00
380e00
381e00
383c00
387800
3ff000
3fe000
380000
380000
380000
380000
380000
380000
000000
000000
ENDCHAR
STARTCHAR keyleft
ENCODING 250
SWIDTH 563 0
DWIDTH 18 0
BBX 18 32 0 -8
BITMAP
000000
000000
000000
000000
000000
000000
000000
000000
00fc00
01fe00
038700
030300
0303c0
0303c0
030300
038700
01fe00
00fc00
000000
000000
000000
000000
000000
000000
000000
000000
000000
000000
000000
000000
000000
000000
ENDCHAR
STARTCHAR keyright
ENCODING 251
SWIDTH 563 0
DWIDTH 18 0
BBX 18 32 0 -8
BITMAP
000000
000000
000000
000000
000000
000000
000000
000000
000000
000000
000000
000000
ffffc0
ffffc0
03f3c0
03f3c0
03f3c0
03f3c0
0003c0
0003c0
000000
000000
000000
000000
000000
000000
000000
000000
000000
000000
000000
000000
ENDCHAR
STARTCHAR box4
ENCODING 252
SWIDTH 563 0
DWIDTH 18 0
BBX 18 32 0 -8
BITMAP
000000
000000
000000
000000
000000
000000
ffffc0
ffffc0
c000c0
c000c0
c030c0
c070c0
c0f0c0
c1f0c0
c3b0c0
c730c0
ce30c0
cc30c0
cffcc0
cffcc0
c030c0
c030c0
c030c0
c030c0
c000c0
c000c0
ffffc0
ffffc0
000000
000000
000000
000000
ENDCHAR
STARTCHAR underA
ENCODING 253
SWIDTH 563 0
DWIDTH 18 0
BBX 18 32 0 -8
BITMAP
000000
000000
00c000
01e000
03f000
073800
0e1c00
0c0c00
0c0c00
0c0c00
0ffc00
0ffc00
0c0c00
0c0c00
0c0c00
0c0c00
000000
000000
ffffc0
ffffc0
000000
000000
000000
000000
000000
000000
000000
000000
000000
000000
000000
000000
ENDCHAR
STARTCHAR magcard
ENCODING 254
SWIDTH 563 0
DWIDTH 18 0
BBX 18 32 0 -8
BITMAP
000000
000000
000000
000000
000000
000000
000000
000000
ffffc0
ffffc0
c000c0
c000c0
c000c0
c000c0
c000c0
c000c0
ffffc0
ffffc0
c000c0
c000c0
ffffc0
ffffc0
000000
000000
000000
000000
000000
000000
000000
000000
000000
000000
ENDCHAR
STARTCHAR boxhuman
ENCODING 255
SWIDTH 563 0
DWIDTH 18 0
BBX 18 32 0 -8
BITMAP
000000
000000
ffffc0
ffffc0
c000c0
c000c0
c3f0c0
c3f0c0
c330c0
c330c0
c3f0c0
c3f0c0
c0c0c0
c0c0c0
ffffc0
ffffc0
c0c0c0
c0c0c0
c0c0c0
c1e0c0
c3f0c0
c738c0
ce1cc0
dc0ec0
f807c0
f003c0
ffffc0
ffffc0
000000
000000
000000
000000
ENDCHAR
STARTCHAR apl_space
ENCODING 272
SWIDTH 563 0
DWIDTH 18 0
BBX 18 32 0 -8
BITMAP
000000
000000
000000
000000
000000
000000
000000
000000
000000
000000
000000
000000
000000
000000
000000
000000
000000
000000
000000
000000
000000
000000
000000
000000
000000
000000
000000
000000
000000
000000
000000
000000
ENDCHAR
STARTCHAR apl_bracketright
ENCODING 316
SWIDTH 563 0
DWIDTH 18 0
BBX 18 32 0 -8
BITMAP
000000
000000
000000
000000
03f800
03f800
003800
003800
003800
003800
003800
003800
003800
003800
003800
003800
003800
003800
003800
003800
003800
003800
003800
003800
03f800
03f800
000000
000000
000000
000000
000000
000000
ENDCHAR
STARTCHAR apl_bracketleft
ENCODING 328
SWIDTH 563 0
DWIDTH 18 0
BBX 18 32 0 -8
BITMAP
000000
000000
000000
000000
03f800
03f800
038000
038000
038000
038000
038000
038000
038000
038000
038000
038000
038000
038000
038000
038000
038000
038000
038000
038000
03f800
03f800
000000
000000
000000
000000
000000
000000
ENDCHAR
STARTCHAR apl_stile
ENCODING 347
SWIDTH 563 0
DWIDTH 18 0
BBX 18 32 0 -8
BITMAP
00e000
00e000
00e000
00e000
00e000
00e000
00e000
00e000
00e000
00e000
00e000
00e000
00e000
00e000
00e000
00e000
00e000
00e000
00e000
00e000
00e000
00e000
00e000
00e000
00e000
00e000
00e000
00e000
00e000
00e000
00e000
00e000
ENDCHAR
STARTCHAR apl_2vertical
ENCODING 384
SWIDTH 563 0
DWIDTH 18 0
BBX 18 32 0 -8
BITMAP
1c0700
1c0700
1c0700
1c0700
1c0700
1c0700
1c0700
1c0700
1c0700
1c0700
1c0700
1c0700
1c0700
1c0700
1c0700
1c0700
1c0700
1c0700
1c0700
1c0700
1c0700
1c0700
1c0700
1c0700
1c0700
1c0700
1c0700
1c0700
1c0700
1c0700
1c0700
1c0700
ENDCHAR
STARTCHAR apl_2horizontal
ENCODING 385
SWIDTH 563 0
DWIDTH 18 0
BBX 18 32 0 -8
BITMAP
000000
000000
000000
ffffc0
ffffc0
000000
000000
000000
000000
000000
000000
000000
000000
000000
000000
000000
000000
000000
000000
000000
000000
000000
000000
000000
000000
000000
000000
ffffc0
ffffc0
000000
000000
000000
ENDCHAR
STARTCHAR apl_leftvbar
ENCODING 386
SWIDTH 563 0
DWIDTH 18 0
BBX 18 32 0 -8
BITMAP
1c0000
1c0000
1c0000
1c0000
1c0000
1c0000
1c0000
1c0000
1c0000
1c0000
1c0000
1c0000
1c0000
1c0000
1c0000
1c0000
1c0000
1c0000
1c0000
1c0000
1c0000
1c0000
1c0000
1c0000
1c0000
1c0000
1c0000
1c0000
1c0000
1c0000
1c0000
1c0000
ENDCHAR
STARTCHAR apl_rightvbar
ENCODING 387
SWIDTH 563 0
DWIDTH 18 0
BBX 18 32 0 -8
BITMAP
000700
000700
000700
000700
000700
000700
000700
000700
000700
000700
000700
000700
000700
000700
000700
000700
000700
000700
000700
000700
000700
000700
000700
000700
000700
000700
000700
000700
000700
000700
000700
000700
ENDCHAR
STARTCHAR apl_midvbar
ENCODING 388
SWIDTH 563 0
DWIDTH 18 0
BBX 18 32 0 -8
BITMAP
00e000
00e000
00e000
00e000
00e000
00e000
00e000
00e000
00e000
00e000
00e000
00e000
00e000
00e000
00e000
00e000
00e000
00e000
00e000
00e000
00e000
00e000
00e000
00e000
00e000
00e000
00e000
00e000
00e000
00e000
00e000
00e000
ENDCHAR
STARTCHAR apl_leftsolid
ENCODING 393
SWIDTH 563 0
DWIDTH 18 0
BBX 18 32 0 -8
BITMAP
ffc000
ffc000
ffc000
ffc000
ffc000
ffc000
ffc000
ffc000
ffc000
ffc000
ffc000
ffc000
ffc000
ffc000
ffc000
ffc000
ffc000
ffc000
ffc000
ffc000
ffc000
ffc000
ffc000
ffc000
ffc000
ffc000
ffc000
ffc000
ffc000
ffc000
ffc000
ffc000
ENDCHAR
STARTCHAR apl_rightsolid
ENCODING 394
SWIDTH 563 0
DWIDTH 18 0
BBX 18 32 0 -8
BITMAP
007fc0
007fc0
007fc0
007fc0
007fc0
007fc0
007fc0
007fc0
007fc0
007fc0
007fc0
007fc0
007fc0
007fc0
007fc0
007fc0
007fc0
007fc0
007fc0
007fc0
007fc0
007fc0
007fc0
007fc0
007fc0
007fc0
007fc0
007fc0
007fc0
007fc0
007fc0
007fc0
ENDCHAR
STARTCHAR apl_topsolid
ENCODING 395
SWIDTH 563 0
DWIDTH 18 0
BBX 18 32 0 -8
BITMAP
ffffc0
ffffc0
ffffc0
ffffc0
ffffc0
ffffc0
ffffc0
ffffc0
ffffc0
ffffc0
ffffc0
ffffc0
ffffc0
ffffc0
ffffc0
ffffc0
000000
000000
000000
000000
000000
000000
000000
000000
000000
000000
000000
000000
000000
000000
000000
000000
ENDCHAR
STARTCHAR apl_bottomsolid
ENCODING 396
SWIDTH 563 0
DWIDTH 18 0
BBX 18 32 0 -8
BITMAP
000000
000000
000000
000000
000000
000000
000000
000000
000000
000000
000000
000000
000000
000000
000000
000000
ffffc0
ffffc0
ffffc0
ffffc0
ffffc0
ffffc0
ffffc0
ffffc0
ffffc0
ffffc0
ffffc0
ffffc0
ffffc0
ffffc0
ffffc0
ffffc0
ENDCHAR
STARTCHAR apl_solid
ENCODING 397
SWIDTH 563 0
DWIDTH 18 0
BBX 18 32 0 -8
BITMAP
ffffc0
ffffc0
ffffc0
ffffc0
ffffc0
ffffc0
ffffc0
ffffc0
ffffc0
ffffc0
ffffc0
ffffc0
ffffc0
ffffc0
ffffc0
ffffc0
ffffc0
ffffc0
ffffc0
ffffc0
ffffc0
ffffc0
ffffc0
ffffc0
ffffc0
ffffc0
ffffc0
ffffc0
ffffc0
ffffc0
ffffc0
ffffc0
ENDCHAR
STARTCHAR apl_midhbar
ENCODING 402
SWIDTH 563 0
DWIDTH 18 0
BBX 18 32 0 -8
BITMAP
000000
000000
000000
000000
000000
000000
000000
000000
000000
000000
000000
000000
000000
000000
ffffc0
ffffc0
000000
000000
000000
000000
000000
000000
000000
000000
000000
000000
000000
000000
000000
000000
000000
000000
ENDCHAR
STARTCHAR apl_lowerleft
ENCODING 419
SWIDTH 563 0
DWIDTH 18 0
BBX 18 32 0 -8
BITMAP
00e000
00e000
00e000
00e000
00e000
00e000
00e000
00e000
00e000
00e000
00e000
00e000
00e000
00f000
00ffc0
007fc0
000000
000000
000000
000000
000000
000000
000000
000000
000000
000000
000000
000000
000000
000000
000000
000000
ENDCHAR
STARTCHAR apl_upperleft
ENCODING 420
SWIDTH 563 0
DWIDTH 18 0
BBX 18 32 0 -8
BITMAP
000000
000000
000000
000000
000000
000000
000000
000000
000000
000000
000000
000000
000000
000000
007fc0
00ffc0
00f000
00e000
00e000
00e000
00e000
00e000
00e000
00e000
00e000
00e000
00e000
00e000
00e000
00e000
00e000
00e000
ENDCHAR
STARTCHAR apl_leftjoin
ENCODING 421
SWIDTH 563 0
DWIDTH 18 0
BBX 18 32 0 -8
BITMAP
00e000
00e000
00e000
00e000
00e000
00e000
00e000
00e000
00e000
00e000
00e000
00e000
00e000
00e000
00ffc0
00ffc0
00e000
00e000
00e000
00e000
00e000
00e000
00e000
00e000
00e000
00e000
00e000
00e000
00e000
00e000
00e000
00e000
ENDCHAR
STARTCHAR apl_bottomjoin
ENCODING 422
SWIDTH 563 0
DWIDTH 18 0
BBX 18 32 0 -8
BITMAP
00e000
00e000
00e000
00e000
00e000
00e000
00e000
00e000
00e000
00e000
00e000
00e000
00e000
00e000
ffffc0
ffffc0
000000
000000
000000
000000
000000
000000
000000
000000
000000
000000
000000
000000
000000
000000
000000
000000
ENDCHAR
STARTCHAR apl_intersect
ENCODING 427
SWIDTH 563 0
DWIDTH 18 0
BBX 18 32 0 -8
BITMAP
00e000
00e000
00e000
00e000
00e000
00e000
00e000
00e000
00e000
00e000
00e000
00e000
00e000
00e000
ffffc0
ffffc0
00e000
00e000
00e000
00e000
00e000
00e000
00e000
00e000
00e000
00e000
00e000
00e000
00e000
00e000
00e000
00e000
ENDCHAR
STARTCHAR apl_lowerright
ENCODING 428
SWIDTH 563 0
DWIDTH 18 0
BBX 18 32 0 -8
BITMAP
00e000
00e000
00e000
00e000
00e000
00e000
00e000
00e000
00e000
00e000
00e000
00e000
00e000
01e000
ffe000
ffc000
000000
000000
000000
000000
000000
000000
000000
000000
000000
000000
000000
000000
000000
000000
000000
000000
ENDCHAR
STARTCHAR apl_upperright
ENCODING 429
SWIDTH 563 0
DWIDTH 18 0
BBX 18 32 0 -8
BITMAP
000000
000000
000000
000000
000000
000000
000000
000000
000000
000000
000000
000000
000000
000000
ffc000
ffe000
01e000
00e000
00e000
00e000
00e000
00e000
00e000
00e000
00e000
00e000
00e000
00e000
00e000
00e000
00e000
00e000
ENDCHAR
STARTCHAR apl_rightjoin
ENCODING 430
SWIDTH 563 0
DWIDTH 18 0
BBX 18 32 0 -8
BITMAP
00e000
00e000
00e000
00e000
00e000
00e000
00e000
00e000
00e000
00e000
00e000
00e000
00e000
00e000
ffe000
ffe000
00e000
00e000
00e000
00e000
00e000
00e000
00e000
00e000
00e000
00e000
00e000
00e000
00e000
00e000
00e000
00e000
ENDCHAR
STARTCHAR apl_topjoin
ENCODING 431
SWIDTH 563 0
DWIDTH 18 0
BBX 18 32 0 -8
BITMAP
000000
000000
000000
000000
000000
000000
000000
000000
000000
000000
000000
000000
000000
000000
ffffc0
ffffc0
00e000
00e000
00e000
00e000
00e000
00e000
00e000
00e000
00e000
00e000
00e000
00e000
00e000
00e000
00e000
00e000
ENDCHAR
STARTCHAR dec_solid
ENCODING 512
SWIDTH 563 0
DWIDTH 18 0
BBX 18 32 0 -8
BITMAP
07fc00
07fc00
07fc00
07fc00
07fc00
07fc00
07fc00
07fc00
07fc00
07fc00
07fc00
07fc00
07fc00
07fc00
07fc00
07fc00
07fc00
07fc00
07fc00
07fc00
07fc00
07fc00
07fc00
07fc00
07fc00
07fc00
07fc00
07fc00
07fc00
07fc00
07fc00
07fc00
ENDCHAR
STARTCHAR dec_filled_circle
ENCODING 513
SWIDTH 563 0
DWIDTH 18 0
BBX 18 32 0 -8
BITMAP
000000
000000
000000
000000
000000
000000
000000
000000
000000
000000
000000
01f000
03f800
07fc00
07fc00
07fc00
07fc00
03f800
01f000
000000
000000
000000
000000
000000
000000
000000
000000
000000
000000
000000
000000
000000
ENDCHAR
STARTCHAR dec_halftone_block
ENCODING 514
SWIDTH 563 0
DWIDTH 18 0
BBX 18 32 0 -8
BITMAP
aaaa80
555540
aaaa80
555540
aaaa80
555540
aaaa80
555540
aaaa80
555540
aaaa80
555540
aaaa80
555540
aaaa80
555540
aaaa80
555540
aaaa80
555540
aaaa80
555540
aaaa80
555540
aaaa80
555540
aaaa80
555540
aaaa80
555540
aaaa80
555540
ENDCHAR
STARTCHAR dec_ht
ENCODING 515
SWIDTH 563 0
DWIDTH 18 0
BBX 18 32 0 -8
BITMAP
000000
000000
000000
1dc000
1dc000
1dc000
1dc000
1fc000
1fc000
1dc000
1dc000
1dc000
1dc000
000000
000000
00fe00
00fe00
003800
003800
003800
003800
003800
003800
003800
003800
000000
000000
000000
000000
000000
000000
000000
ENDCHAR
STARTCHAR dec_ff
ENCODING 516
SWIDTH 563 0
DWIDTH 18 0
BBX 18 32 0 -8
BITMAP
000000
000000
000000
1fc000
1fc000
1c0000
1c0000
1f8000
1f8000
1c0000
1c0000
1c0000
1c0000
000000
000000
00fe00
00fe00
00e000
00e000
00fc00
00fc00
00e000
00e000
00e000
00e000
000000
000000
000000
000000
000000
000000
000000
ENDCHAR
STARTCHAR dec_cr
ENCODING 517
SWIDTH 563 0
DWIDTH 18 0
BBX 18 32 0 -8
BITMAP
000000
000000
000000
0f8000
1fc000
1fc000
1c0000
1c0000
1c0000
1c0000
1fc000
1fc000
0f8000
000000
000000
00fc00
00fe00
00ee00
00ee00
00fc00
00f800
00fc00
00fc00
00ee00
00ee00
000000
000000
000000
000000
000000
000000
000000
ENDCHAR
STARTCHAR dec_lf
ENCODING 518
SWIDTH 563 0
DWIDTH 18 0
BBX 18 32 0 -8
BITMAP
000000
000000
000000
1c0000
1c0000
1c0000
1c0000
1c0000
1c0000
1c0000
1c0000
1fc000
1fc000
000000
000000
00fe00
00fe00
00e000
00e000
00fc00
00fc00
00e000
00e000
00e000
00e000
000000
000000
000000
000000
000000
000000
000000
ENDCHAR
STARTCHAR dec_degree
ENCODING 519
SWIDTH 563 0
DWIDTH 18 0
BBX 18 32 0 -8
BITMAP
000000
000000
000000
000000
03e000
07f000
0f7800
0e3800
0e3800
0f7800
07f000
03e000
000000
000000
000000
000000
000000
000000
000000
000000
000000
000000
000000
000000
000000
000000
000000
000000
000000
000000
000000
000000
ENDCHAR
STARTCHAR dec_plusminus
ENCODING 520
SWIDTH 563 0
DWIDTH 18 0
BBX 18 32 0 -8
BITMAP
000000
000000
000000
000000
00e000
00e000
00e000
00e000
00e000
00e000
3fff80
3fff80
00e000
00e000
00e000
00e000
00e000
00e000
000000
000000
3fff80
3fff80
000000
000000
000000
000000
000000
000000
000000
000000
000000
000000
ENDCHAR
STARTCHAR dec_nl
ENCODING 521
SWIDTH 563 0
DWIDTH 18 0
BBX 18 32 0 -8
BITMAP
000000
000000
000000
1ce000
1ee000
1ee000
1fe000
1fe000
1fe000
1de000
1de000
1ce000
1ce000
000000
000000
00e000
00e000
00e000
00e000
00e000
00e000
00e000
00e000
00fe00
00fe00
000000
000000
000000
000000
000000
000000
000000
ENDCHAR
STARTCHAR dec_vt
ENCODING 522
SWIDTH 563 0
DWIDTH 18 0
BBX 18 32 0 -8
BITMAP
000000
000000
000000
1ce000
1ce000
1ce000
1ce000
1ce000
1ce000
1fe000
0fc000
078000
030000
000000
000000
00fe00
00fe00
003800
003800
003800
003800
003800
003800
003800
003800
000000
000000
000000
000000
000000
000000
000000
ENDCHAR
STARTCHAR dec_lowerright
ENCODING 523
SWIDTH 563 0
DWIDTH 18 0
BBX 18 32 0 -8
BITMAP
00e000
00e000
00e000
00e000
00e000
00e000
00e000
00e000
00e000
00e000
00e000
00e000
00e000
01e000
ffe000
ffc000
000000
000000
000000
000000
000000
000000
000000
000000
000000
000000
000000
000000
000000
000000
000000
000000
ENDCHAR
STARTCHAR dec_upperright
ENCODING 524
SWIDTH 563 0
DWIDTH 18 0
BBX 18 32 0 -8
BITMAP
000000
000000
000000
000000
000000
000000
000000
000000
000000
000000
000000
000000
000000
000000
ffc000
ffe000
01e000
00e000
00e000
00e000
00e000
00e000
00e000
00e000
00e000
00e000
00e000
00e000
00e000
00e000
00e000
00e000
ENDCHAR
STARTCHAR dec_upperleft
ENCODING 525
SWIDTH 563 0
DWIDTH 18 0
BBX 18 32 0 -8
BITMAP
000000
000000
000000
000000
000000
000000
000000
000000
000000
000000
000000
000000
000000
000000
007fc0
00ffc0
00f000
00e000
00e000
00e000
00e000
00e000
00e000
00e000
00e000
00e000
00e000
00e000
00e000
00e000
00e000
00e000
ENDCHAR
STARTCHAR dec_lowerleft
ENCODING 526
SWIDTH 563 0
DWIDTH 18 0
BBX 18 32 0 -8
BITMAP
00e000
00e000
00e000
00e000
00e000
00e000
00e000
00e000
00e000
00e000
00e000
00e000
00e000
00f000
00ffc0
007fc0
000000
000000
000000
000000
000000
000000
000000
000000
000000
000000
000000
000000
000000
000000
000000
000000
ENDCHAR
STARTCHAR dec_intersect
ENCODING 527
SWIDTH 563 0
DWIDTH 18 0
BBX 18 32 0 -8
BITMAP
00e000
00e000
00e000
00e000
00e000
00e000
00e000
00e000
00e000
00e000
00e000
00e000
00e000
00e000
ffffc0
ffffc0
00e000
00e000
00e000
00e000
00e000
00e000
00e000
00e000
00e000
00e000
00e000
00e000
00e000
00e000
00e000
00e000
ENDCHAR
STARTCHAR dec_hbar1
ENCODING 528
SWIDTH 563 0
DWIDTH 18 0
BBX 18 32 0 -8
BITMAP
000000
000000
ffffc0
ffffc0
000000
000000
000000
000000
000000
000000
000000
000000
000000
000000
000000
000000
000000
000000
000000
000000
000000
000000
000000
000000
000000
000000
000000
000000
000000
000000
000000
000000
ENDCHAR
STARTCHAR dec_hbar2
ENCODING 529
SWIDTH 563 0
DWIDTH 18 0
BBX 18 32 0 -8
BITMAP
000000
000000
000000
000000
000000
000000
000000
000000
ffffc0
ffffc0
000000
000000
000000
000000
000000
000000
000000
000000
000000
000000
000000
000000
000000
000000
000000
000000
000000
000000
000000
000000
000000
000000
ENDCHAR
STARTCHAR dec_hbar3
ENCODING 530
SWIDTH 563 0
DWIDTH 18 0
BBX 18 32 0 -8
BITMAP
000000
000000
000000
000000
000000
000000
000000
000000
000000
000000
000000
000000
000000
000000
ffffc0
ffffc0
000000
000000
000000
000000
000000
000000
000000
000000
000000
000000
000000
000000
000000
000000
000000
000000
ENDCHAR
STARTCHAR dec_hbar4
ENCODING 531
SWIDTH 563 0
DWIDTH 18 0
BBX 18 32 0 -8
BITMAP
000000
000000
000000
000000
000000
000000
000000
000000
000000
000000
000000
000000
000000
000000
000000
000000
000000
000000
000000
000000
ffffc0
ffffc0
000000
000000
000000
000000
000000
000000
000000
000000
000000
000000
ENDCHAR
STARTCHAR dec_hbar5
ENCODING 532
SWIDTH 563 0
DWIDTH 18 0
BBX 18 32 0 -8
BITMAP
000000
000000
000000
000000
000000
000000
000000
000000
000000
000000
000000
000000
000000
000000
000000
000000
000000
000000
000000
000000
000000
000000
000000
000000
000000
000000
ffffc0
ffffc0
000000
000000
000000
000000
ENDCHAR
STARTCHAR dec_leftjoin
ENCODING 533
SWIDTH 563 0
DWIDTH 18 0
BBX 18 32 0 -8
BITMAP
00e000
00e000
00e000
00e000
00e000
00e000
00e000
00e000
00e000
00e000
00e000
00e000
00e000
00e000
00ffc0
00ffc0
00e000
00e000
00e000
00e000
00e000
00e000
00e000
00e000
00e000
00e000
00e000
00e000
00e000
00e000
00e000
00e000
ENDCHAR
STARTCHAR dec_rightjoin
ENCODING 534
SWIDTH 563 0
DWIDTH 18 0
BBX 18 32 0 -8
BITMAP
00e000
00e000
00e000
00e000
00e000
00e000
00e000
00e000
00e000
00e000
00e000
00e000
00e000
00e000
ffe000
ffe000
00e000
00e000
00e000
00e000
00e000
00e000
00e000
00e000
00e000
00e000
00e000
00e000
00e000
00e000
00e000
00e000
ENDCHAR
STARTCHAR dec_bottomjoin
ENCODING 535
SWIDTH 563 0
DWIDTH 18 0
BBX 18 32 0 -8
BITMAP
00e000
00e000
00e000
00e000
00e000
00e000
00e000
00e000
00e000
00e000
00e000
00e000
00e000
00e000
ffffc0
ffffc0
000000
000000
000000
000000
000000
000000
000000
000000
000000
000000
000000
000000
000000
000000
000000
000000
ENDCHAR
STARTCHAR dec_topjoin
ENCODING 536
SWIDTH 563 0
DWIDTH 18 0
BBX 18 32 0 -8
BITMAP
000000
000000
000000
000000
000000
000000
000000
000000
000000
000000
000000
000000
000000
000000
ffffc0
ffffc0
00e000
00e000
00e000
00e000
00e000
00e000
00e000
00e000
00e000
00e000
00e000
00e000
00e000
00e000
00e000
00e000
ENDCHAR
STARTCHAR dec_vbar
ENCODING 537
SWIDTH 563 0
DWIDTH 18 0
BBX 18 32 0 -8
BITMAP
00e000
00e000
00e000
00e000
00e000
00e000
00e000
00e000
00e000
00e000
00e000
00e000
00e000
00e000
00e000
00e000
00e000
00e000
00e000
00e000
00e000
00e000
00e000
00e000
00e000
00e000
00e000
00e000
00e000
00e000
00e000
00e000
ENDCHAR
STARTCHAR dec_notgreater
ENCODING 538
SWIDTH 563 0
DWIDTH 18 0
BBX 18 32 0 -8
BITMAP
000000
000000
000000
000000
000000
000000
000e00
001e00
003c00
007800
00f000
01e000
03c000
078000
0f0000
0f0000
078000
03c000
01e000
00f000
007800
003c00
001e00
000e00
000000
000000
1fff00
1fff00
000000
000000
000000
000000
ENDCHAR
STARTCHAR dec_notless
ENCODING 539
SWIDTH 563 0
DWIDTH 18 0
BBX 18 32 0 -8
BITMAP
000000
000000
000000
000000
000000
000000
0e0000
0f0000
078000
03c000
01e000
00f000
007800
003c00
001e00
001e00
003c00
007800
00f000
01e000
03c000
078000
0f0000
0e0000
000000
000000
1fff00
1fff00
000000
000000
000000
000000
ENDCHAR
STARTCHAR dec_pi
ENCODING 540
SWIDTH 563 0
DWIDTH 18 0
BBX 18 32 0 -8
BITMAP
000000
000000
000000
000000
000000
000000
000000
000000
3fff80
3fff80
0e0e00
0e0e00
0e0e00
0e0e00
0e0e00
0e0e00
0e0e00
0e0e00
0e0e00
0e0e00
0e0e00
1e0e00
1c0e00
1c0e00
000000
000000
000000
000000
000000
000000
000000
000000
ENDCHAR
STARTCHAR dec_notequal
ENCODING 541
SWIDTH 563 0
DWIDTH 18 0
BBX 18 32 0 -8
BITMAP
000000
000000
000000
000000
000000
000000
000000
000000
000380
000780
000f00
001e00
3fff80
3fff80
00f000
01e000
3fff80
3fff80
0f0000
1e0000
3c0000
380000
000000
000000
000000
000000
000000
000000
000000
000000
000000
000000
ENDCHAR
STARTCHAR dec_sterling
ENCODING 542
SWIDTH 563 0
DWIDTH 18 0
BBX 18 32 0 -8
BITMAP
000000
000000
000000
000000
00f800
01fc00
03de00
038e00
038000
038000
038000
038000
3ff800
3ff800
038000
038000
038000
038000
038000
038000
3f8380
3fc780
3fff00
3efe00
000000
000000
000000
000000
000000
000000
000000
000000
ENDCHAR
STARTCHAR dec_periodcentered
ENCODING 543
SWIDTH 563 0
DWIDTH 18 0
BBX 18 32 0 -8
BITMAP
000000
000000
000000
000000
000000
000000
000000
000000
000000
000000
000000
000000
000000
000000
03e000
03e000
03e000
03e000
000000
000000
000000
000000
000000
000000
000000
000000
000000
000000
000000
000000
000000
000000
ENDCHAR
ENDFONT
